<?xml version="1.0" encoding="utf-8"?>
<!-- Generator: Adobe Illustrator 21.1.0, SVG Export Plug-In . SVG Version: 6.00 Build 0)  -->
<svg version="1.1" id="Layer_1" xmlns="http://www.w3.org/2000/svg" xmlns:xlink="http://www.w3.org/1999/xlink" x="0px" y="0px"
	 viewBox="0 0 61.2 63" style="enable-background:new 0 0 61.2 63;" xml:space="preserve">
<style type="text/css">
	.st0{fill:#282827;}
	.st1{fill:#7996CD;}
	.st2{fill:#93C750;}
	.st3{fill:none;stroke:#CBCBCA;stroke-width:0.5;stroke-miterlimit:10;}
	.st4{fill:#93C851;}
	.st5{clip-path:url(#SVGID_2_);}
</style>
<title>87x63</title>
<g>
	<path class="st0" d="M41.7,41.1c-3.4,2-7.2,3-11.2,3C18.9,44.1,9.3,35,8.8,23.4h8.1c0.6,7.5,7.2,13.1,14.7,12.5
		c1.5-0.1,2.9-0.5,4.2-1L41.7,41.1z"/>
	<path class="st0" d="M48.2,35.2l-2.3-2.3c-0.8,2-2.3,3.6-4.3,4.3l2.4,2.3l5.2,0.8L48.2,35.2z"/>
	<path class="st0" d="M45.8,32.9c-0.8,2-2.3,3.6-4.3,4.3l2.4,2.3l4.3-4.4L45.8,32.9z"/>
	<path class="st1" d="M47.3,40.1l1.8,0.3l-0.3-1.9C48,38.8,47.5,39.4,47.3,40.1z"/>
	<path class="st0" d="M46.2,33.7c1.1,1.1,1.1,2.8,0,3.9c-1.1,1.1-2.8,1.1-3.9,0l0,0l-6.4-6.3l3.9-3.9L46.2,33.7z"/>
	<path class="st2" d="M39.8,26.8l6.7,6.6c1.2,1.3,1.1,3.3-0.2,4.4c-1.2,1.1-3,1.1-4.2,0l-6.7-6.6l0.5-0.5l6.7,6.6
		c1,0.8,2.6,0.7,3.4-0.4c0.7-0.9,0.7-2.2,0-3l-6.7-6.6L39.8,26.8z"/>
	<line class="st3" x1="36.6" y1="30.6" x2="39.4" y2="33.3"/>
	<line class="st3" x1="37.9" y1="29.4" x2="39.4" y2="30.9"/>
	<line class="st3" x1="39.1" y1="28.1" x2="45.5" y2="34.4"/>
	<path class="st4" d="M4.8,56.9c0.5,0,1-0.2,1.4-0.5V59c-0.4,0.1-0.9,0.2-1.4,0.2c-2.5,0-4.5-2-4.5-4.5s2-4.5,4.5-4.5
		c0.5,0,0.9,0.1,1.4,0.2V53c-0.9-0.7-2.3-0.6-3,0.3c-0.7,0.9-0.6,2.3,0.3,3C3.8,56.7,4.3,56.8,4.8,56.9L4.8,56.9z M9.3,61.2
		c0,0.9-0.4,1.4-1.2,1.4c-0.6,0-1.2-0.5-1.2-1.4v-2.5l0,0v-6.9c0-1.3,0.8-1.4,1.2-1.4c0.7,0,1.2,0.6,1.2,1.3c0,0,0,0.1,0,0.1
		L9.3,61.2z"/>
	<path class="st4" d="M15.5,56.7v2.5c-0.2,0-0.5,0.1-0.8,0.1c-1.9,0.2-3.7-1.2-3.9-3.1c0-0.2,0-0.5,0-0.7v-3.6c0-1,0.5-1.4,1.2-1.4
		s1.2,0.4,1.2,1.4v3.6c0,0.8,0.7,1.5,1.5,1.5C15,56.9,15.3,56.8,15.5,56.7z M18.6,57.9c0,0.9-0.5,1.4-1.2,1.4
		c-0.4,0-1.1-0.1-1.1-1.4v-6.4c0-0.6,0.5-1.2,1.1-1.2c0.7,0,1.2,0.4,1.2,1.4L18.6,57.9z"/>
	<path class="st4" d="M24.3,50.3c0.5,0,1.1,0.1,1.6,0.3v2.7c-0.4-0.4-1-0.7-1.6-0.7c-1.2,0-2.1,1-2.1,2.2c0,1.2,1,2.1,2.1,2.1
		c0.6,0,1.2-0.2,1.6-0.7V59c-0.5,0.2-1,0.3-1.6,0.3c-2.5,0-4.5-2-4.5-4.5S21.8,50.3,24.3,50.3L24.3,50.3L24.3,50.3z M26.7,58.7v-7.8
		c0.2-0.4,0.6-0.6,1-0.5h0.1c0.8,0.1,1.1,0.8,1.1,1.4v6c0,0.7-0.3,1.4-1.1,1.4h-0.1C27.3,59.2,26.9,59,26.7,58.7L26.7,58.7z"/>
	<path class="st4" d="M30.3,51.7c0-0.9,0.5-1.4,1.2-1.4c0.4,0,1.2,0.1,1.2,1.4v2.2c0,0.1,0,0.1,0,0.2v3.7c0,1-0.5,1.4-1.2,1.4
		s-1.2-0.4-1.2-1.4L30.3,51.7z M33.5,52.8v-2.5c0.2,0,0.5-0.1,0.7-0.1c1.9-0.2,3.7,1.2,3.9,3.1c0,0.2,0,0.5,0,0.7v3.6
		c0,1-0.5,1.4-1.2,1.4s-1.2-0.4-1.2-1.4v-3.6c0-0.8-0.7-1.5-1.5-1.5C34,52.6,33.7,52.7,33.5,52.8z"/>
	<path class="st0" d="M40.8,49.3c0-1,0.5-1.4,1.2-1.4s1.2,0.5,1.2,1.4v1.1h0.7c0.9,0,1.3,0.5,1.3,1s-0.4,1.1-1.3,1.1h-3.8
		c-0.9,0-1.3-0.5-1.3-1.1s0.4-1,1.3-1h0.8V49.3z"/>
	<path class="st4" d="M40.8,57.7v-4.4h2.4v4.4c0,1-0.5,1.4-1.2,1.4S40.8,58.7,40.8,57.7z"/>
	<path class="st0" d="M46.4,51.7c0-0.9,0.5-1.4,1.2-1.4c0.4,0,0.7,0.2,0.9,0.5c0.5-0.3,1.1-0.5,1.8-0.5c0.6,0,1.2,0.5,1.2,1.2
		c0,0.6-0.5,1.2-1.2,1.2c-0.8,0-1.4,0.6-1.5,1.3v3.7c0,1-0.5,1.4-1.2,1.4s-1.2-0.4-1.2-1.4V51.7z"/>
	<path class="st0" d="M56.4,50.3c0.5,0,1.1,0.1,1.6,0.3v2.7c-0.4-0.4-1-0.7-1.6-0.7c-1.2,0-2.1,1-2.1,2.2c0,1.2,1,2.1,2.1,2.1
		c0.6,0,1.2-0.2,1.6-0.7V59c-0.5,0.2-1,0.3-1.6,0.3c-2.5,0-4.5-2-4.5-4.5S53.9,50.3,56.4,50.3L56.4,50.3z M58.7,58.7v-7.8
		c0.2-0.4,0.6-0.6,1-0.5h0.1c0.8,0.1,1.1,0.8,1.1,1.4v6c0,0.7-0.3,1.4-1.1,1.4h-0.1C59.3,59.2,58.9,59,58.7,58.7L58.7,58.7z"/>
	<g>
		<defs>
			<path id="SVGID_1_" d="M49.3,33.5l-6.1-6c0.7-1.7,1.1-3.4,1.1-5.3c0-7.6-6.1-13.7-13.6-13.7c-7,0-13,5.3-13.7,12.3H8.8
				C9.6,8.8,19.9-0.3,32,0.5s21.2,11.2,20.4,23.2C52.1,27.2,51.1,30.5,49.3,33.5z"/>
		</defs>
		<clipPath id="SVGID_2_">
			<use xlink:href="#SVGID_1_"  style="overflow:visible;"/>
		</clipPath>
		<g class="st5">
			<path class="st0" d="M31.8,6.3c-0.2,0.3-0.5,0.6-0.8,0.6c-0.4,0-0.7-0.2-1-0.5c-0.1-0.1-0.2-0.3-0.3-0.4
				c-0.1-0.2-0.2-0.3-0.3-0.5l1.8-4.2h-1.5l-0.9,2.5c-0.2-1.8-1-2.6-2.4-2.6c-1,0-1.9,0.5-2.3,1.4c-0.5,0.8-0.7,1.8-0.7,2.7
				c0,0.8,0.3,1.5,0.8,2.1c0.5,0.6,1.2,1,2,0.9c0.7,0,1.3-0.3,1.8-0.8c0.5-0.5,0.9-1.1,1.2-1.7c0.1,0.4,0.2,0.7,0.3,0.9
				c0.1,0.2,0.1,0.4,0.2,0.6c0.3,0.6,0.7,0.9,1.1,0.9c0.4,0,0.7-0.2,0.8-0.6c0.2-0.3,0.2-0.7,0.2-1c0-0.1,0-0.1,0-0.2
				C31.9,6.5,31.9,6.4,31.8,6.3z M27.8,6.4c-0.7,1-1.3,1.5-1.8,1.5c-0.9,0-1.3-0.7-1.3-2.2c0-0.8,0.1-1.5,0.5-2.2
				c0.2-0.7,0.9-1.3,1.7-1.3c0.5,0,1,0.3,1.3,0.7c0.3,0.4,0.4,1,0.5,1.5C28.6,5.2,28.3,5.9,27.8,6.4L27.8,6.4z"/>
			<path class="st0" d="M51.3,27.7c-0.2,0.4-0.3,0.5-0.6,0.5s-0.5-0.2-0.8-0.5c-0.1-0.1-0.2-0.3-0.3-0.5c-0.1-0.2-0.1-0.3-0.2-0.5
				l1.6-4.1h-1.2L49,25.1c-0.1-1.8-0.9-2.6-2.2-2.6c-0.9,0-1.8,0.5-2.2,1.3c-0.5,0.8-0.7,1.7-0.6,2.7c-0.1,0.8,0.1,1.5,0.6,2.1
				c0.4,0.6,1.1,1,1.8,1c0.6,0,1.3-0.2,1.7-0.7c0.5-0.5,0.8-1.1,1.1-1.7c0.1,0.4,0.2,0.7,0.3,0.9c0.1,0.2,0.1,0.4,0.2,0.6
				c0.3,0.6,0.5,1,0.9,1c0.3,0,0.6-0.2,0.7-0.6c0.1-0.3,0.1-0.7,0.1-1c0-0.1,0-0.1,0-0.2C51.3,27.9,51.3,27.8,51.3,27.7z M47.8,27.6
				c-0.6,1-1.2,1.5-1.7,1.5c-0.8,0-1.2-0.7-1.2-2.2c0-0.8,0.2-1.5,0.5-2.2c0.4-0.9,0.9-1.3,1.6-1.3c0.5,0,1,0.3,1.2,0.7
				c0.3,0.5,0.4,1,0.4,1.5C48.5,26.3,48.2,27,47.8,27.6L47.8,27.6z"/>
			<path class="st0" d="M38,5.6c0-0.5,0-0.9,0.1-1.2c0-0.3,0-0.6,0-0.8c0-1.5-0.6-2.2-1.7-2.2c-0.6,0-1.2,0.3-1.5,0.9
				c-0.1,0.2-0.3,0.5-0.4,0.7c-0.1,0.3-0.2,0.7-0.3,1c-0.2-1.6-0.7-2.5-1.5-2.4c-0.2,0-0.4,0.1-0.6,0.3C32,2,31.9,2.2,31.9,2.4
				c0,0.1,0,0.3,0.1,0.4c0,0.1,0.2,0.2,0.3,0.2c0.1,0,0.2-0.1,0.3-0.1c0.1-0.1,0.2-0.1,0.3-0.1c0.6,0,0.9,0.5,1,1.6
				c0,0.5-0.1,1-0.2,1.5c-0.1,0.3-0.1,0.5-0.2,0.8c-0.1,0.3-0.1,0.5-0.2,0.8h1c0.1-0.3,0.1-0.6,0.2-0.9c0.1-0.3,0.1-0.6,0.2-0.9
				c0.1-0.7,0.4-1.5,0.7-2.2c0.4-0.7,0.8-1,1.3-1.1c0.5,0,0.8,0.3,0.9,1.1c0,1-0.2,2-0.4,2.9c-0.2,0.9-0.4,1.9-0.4,2.9
				c0,0.8,0.3,1.1,0.8,1.1c0.2,0,0.3,0,0.5-0.1c0.1,0,0.2-0.2,0.2-0.3c0-0.1,0-0.3,0-0.4c0-0.2,0-0.4-0.1-0.6
				C38,8.5,38,8.1,37.9,7.7c0-0.2,0-0.5,0-0.8S38,6.1,38,5.6z"/>
			<path class="st0" d="M39.7,5.9c-0.3,0.2-0.6,0.5-0.8,0.9c-0.5,0.8-0.4,0.9-0.5,1L38.7,8C39,7.6,39.5,7.2,40,7.1
				C40.2,7.1,40.4,7,40.6,7L42,6.8c0,0.1,0,0.3,0,0.6c0,0.3,0,0.8,0,1.3c0,0.6,0.1,1.3,0.1,1.9c0.3,1.8,1.1,2.6,2.4,2.4
				c0.5-0.1,0.8-0.4,0.9-0.9c0.2-0.4,0.3-0.9,0.2-1.4v-0.2c0,0,0-0.1,0-0.1c-0.2,0.5-0.6,0.9-1.2,1c-0.4,0-0.8-0.1-1-0.4
				c-0.3-0.3-0.4-0.6-0.5-1c-0.1-1.1-0.2-2.2-0.2-3.2L44,6.5L43.7,5l-2.8,0.5C40.5,5.6,40.1,5.7,39.7,5.9z"/>
			<path class="st0" d="M43.4,14.8c0.9-0.1,1.2,0.3,2,1.2c0.6,0.7,1,1.5,1.1,2.4c0.1,0.4,0.1,0.9,0,1.4c0,0.3-0.1,0.6-0.1,0.8
				c0,0.2,0,0.4,0,0.5c0,0.3,0.3,0.4,0.8,0.3S48,21,48,20.7c0-0.2-0.1-0.3-0.1-0.5c-0.1-0.2-0.2-0.5-0.3-0.7
				c-0.1-0.2-0.2-0.4-0.3-0.7c-0.1-0.2-0.1-0.3-0.1-0.5C47,17.2,47.3,16,48,15.1c0.3-0.4,0.6-0.7,1-1l0.6-0.3l0.6-0.3l0.1-0.2
				c0-0.4-0.3-0.7-0.7-0.7c-0.1,0-0.1,0-0.2,0c-0.9,0.1-1.6,0.8-2.1,2.1c-0.4,0.9-0.6,1.8-0.5,2.7c-0.3-0.9-0.8-1.7-1.3-2.4
				c-0.4-0.7-1.2-1.2-2-1.2c-0.3,0-0.6,0.1-0.9,0.3c-0.2,0.2-0.3,0.5-0.3,0.8c0,0.1,0,0.2,0,0.3C42.6,15,43,14.8,43.4,14.8z"/>
			<path class="st0" d="M27,9.1c0.3,0.1,0.4,0.2,0.4,0.3c0,0,0,0,0,0.1c0,0,0,0-0.1,0c-0.1,0-0.1-0.1-0.2-0.1L27,9.3l-0.1-0.1
				C26.8,9.1,26.6,9,26.4,9h-0.2v0c0.1-0.1,0.2-0.3,0.4-0.4c0.1-0.1,0.3-0.2,0.5-0.1c0.1,0,0.3,0.1,0.4,0.2h-0.2
				c-0.2,0-0.3,0-0.5,0.1c-0.2,0-0.3,0.1-0.4,0.2C26.7,9,26.9,9,27,9.1z"/>
			<path class="st0" d="M46.6,14.9c0.1-0.4,0.3-0.6,0.4-0.6c0,0,0.1,0,0.1,0.1c0,0,0,0.1,0,0.1c0,0.1-0.1,0.2-0.1,0.3l-0.2,0.2
				l-0.1,0.2c-0.1,0.2-0.2,0.4-0.2,0.7c0,0.1,0,0.1,0,0.2h0c-0.2-0.2-0.3-0.3-0.4-0.6c-0.1-0.2-0.2-0.5-0.2-0.7
				c0-0.2,0.1-0.4,0.3-0.5c0,0.1,0,0.2,0,0.2c0,0.2,0,0.5,0.1,0.7c0,0.2,0.1,0.4,0.3,0.6C46.5,15.4,46.6,15.1,46.6,14.9z"/>
			<path class="st0" d="M49.2,23.2c0.1-0.3,0.2-0.4,0.3-0.4c0,0,0,0,0.1,0c0,0,0,0,0,0.1c0,0.1-0.1,0.1-0.1,0.2l-0.1,0.2l-0.1,0.1
				c-0.1,0.2-0.1,0.3-0.1,0.5c0,0.1,0,0.1,0,0.2l0,0c-0.1-0.1-0.2-0.3-0.3-0.4c-0.1-0.2-0.1-0.4-0.1-0.5c0-0.2,0.1-0.3,0.2-0.4
				c0,0.1,0,0.1,0,0.2c0,0.2,0,0.3,0,0.5c0,0.2,0.1,0.3,0.2,0.4C49.2,23.5,49.2,23.3,49.2,23.2z"/>
			<path class="st0" d="M43.7,13.5c-0.2,0-0.3,0-0.4,0.1c0,0,0,0,0,0.1l0,0c0.1,0,0.1,0,0.2,0h0.1h0.1c0.1,0,0.3,0,0.4,0h0.1l0,0
				c0-0.1-0.1-0.2-0.2-0.3c-0.1-0.1-0.2-0.2-0.3-0.2c-0.1-0.1-0.2-0.1-0.3,0h0.1c0.1,0,0.2,0.1,0.3,0.2c0.1,0.1,0.2,0.2,0.2,0.3
				C43.9,13.5,43.8,13.5,43.7,13.5z"/>
			<path class="st0" d="M46.2,12.2c0.2-0.2,0.3-0.3,0.4-0.3c0,0,0,0,0,0.1c0,0,0,0.1,0,0.1c0,0.1-0.1,0.1-0.2,0.1l-0.2,0.1l-0.1,0.1
				c-0.1,0.1-0.2,0.3-0.3,0.4L45.8,13l0,0c-0.1-0.2-0.1-0.3-0.2-0.5c0-0.2,0-0.4,0.1-0.6c0.1-0.1,0.2-0.3,0.3-0.3
				c0,0-0.1,0.1-0.1,0.2c-0.1,0.2-0.1,0.3-0.1,0.5c0,0.2,0,0.3,0,0.5C45.9,12.6,46.1,12.4,46.2,12.2z"/>
			<path class="st0" d="M39,5.8c0.3-0.3,0.5-0.5,0.7-0.4c0,0,0.1,0.1,0.1,0.1c0,0,0,0.1,0,0.1c-0.1,0.1-0.2,0.2-0.3,0.2l-0.3,0.2
				l-0.2,0.1c-0.2,0.2-0.3,0.4-0.4,0.6l-0.1,0.2h-0.1c-0.2-0.2-0.3-0.5-0.3-0.8c-0.1-0.3-0.1-0.5,0-0.8c0.1-0.2,0.3-0.4,0.5-0.4
				c-0.1,0.1-0.1,0.1-0.1,0.2c-0.1,0.2-0.1,0.5-0.1,0.7c0,0.2,0,0.5,0.2,0.7C38.7,6.3,38.8,6,39,5.8z"/>
			<path class="st0" d="M29.5,7.8c0.1,0.4,0.3,0.6,0.5,0.5c0,0,0.1,0,0.1-0.1c0,0,0-0.1,0-0.1C30.1,8.1,30,8,29.9,8l-0.2-0.2
				l-0.1-0.2c-0.1-0.2-0.2-0.4-0.2-0.7c0-0.1,0-0.1,0-0.2h-0.1c-0.2,0.2-0.4,0.4-0.5,0.6c-0.1,0.2-0.2,0.4-0.2,0.7
				c0,0.2,0.1,0.4,0.3,0.5c0-0.1-0.1-0.2-0.1-0.2c0-0.2,0-0.5,0.1-0.7C29,7.4,29.1,7.2,29.3,7C29.3,7.3,29.4,7.6,29.5,7.8z"/>
			<path class="st0" d="M18,16.7c0.3-0.2,0.4-0.4,0.3-0.6c0,0,0,0-0.1-0.1c0,0-0.1,0-0.1,0c-0.1,0.1-0.1,0.1-0.1,0.2l-0.1,0.2
				l-0.1,0.2c-0.1,0.2-0.3,0.3-0.5,0.4l-0.2,0.1v0c0.2,0.1,0.4,0.2,0.6,0.2c0.2,0.1,0.5,0,0.7-0.1c0.2-0.1,0.3-0.2,0.3-0.4
				c-0.1,0-0.1,0.1-0.2,0.1c-0.2,0.1-0.4,0.1-0.6,0.1c-0.2,0-0.4,0-0.6-0.1C17.6,17,17.8,16.9,18,16.7z"/>
			<path class="st0" d="M13,18.9c0,0.2,0,0.3,0.1,0.4h0.1l0,0c0,0,0-0.1,0-0.1c0,0,0-0.1,0-0.1c0-0.2,0-0.3,0-0.5v-0.1l0,0
				c-0.1,0-0.3,0.1-0.4,0.1c-0.1,0.1-0.2,0.2-0.3,0.3c-0.1,0.1-0.1,0.2,0,0.3c0,0,0-0.1,0-0.1c0-0.1,0.1-0.2,0.2-0.3
				c0.1-0.1,0.2-0.1,0.3-0.2C13.1,18.6,13.1,18.7,13,18.9z"/>
			<path class="st0" d="M10.4,20.4c0.3-0.1,0.5-0.3,0.5-0.5c0,0,0-0.1-0.1-0.1c0,0-0.1,0-0.1,0c-0.1,0-0.1,0.1-0.2,0.1l-0.2,0.2
				l-0.1,0.1c-0.2,0.1-0.4,0.2-0.6,0.2H9.4v0.1c0.2,0.2,0.3,0.3,0.5,0.4c0.2,0.1,0.4,0.2,0.6,0.1c0.2,0,0.4-0.1,0.4-0.3
				c-0.1,0-0.1,0-0.2,0.1c-0.2,0-0.4,0-0.6,0c-0.2,0-0.4-0.1-0.5-0.3C9.9,20.6,10.2,20.5,10.4,20.4z"/>
			<path class="st0" d="M15.3,18.7c0.3,0.1,0.5,0.1,0.6-0.1c0,0,0-0.1,0-0.1c0,0,0-0.1,0-0.1c-0.1,0-0.2,0-0.3,0h-0.2h-0.2
				c-0.2,0-0.4-0.1-0.5-0.2l-0.1-0.1l0,0c0,0.2,0.1,0.4,0.1,0.6c0.1,0.2,0.2,0.4,0.4,0.5c0.2,0.1,0.3,0.1,0.5,0l-0.2-0.1
				c-0.2-0.1-0.3-0.2-0.4-0.4c-0.1-0.1-0.2-0.3-0.2-0.5C14.9,18.5,15.1,18.7,15.3,18.7z"/>
			<path class="st0" d="M32.5,6.7c0,0.3-0.1,0.5-0.3,0.5c0,0-0.1,0-0.1,0c0,0,0,0,0-0.1c0-0.1,0-0.2,0.1-0.2l0.1-0.2
				c0-0.1,0-0.1,0.1-0.2c0.1-0.2,0.1-0.4,0.1-0.6c0-0.1,0-0.1,0-0.2l0,0c0.2,0.1,0.3,0.2,0.4,0.4C33,6.4,33,6.6,33.1,6.8
				c0,0.2,0,0.3-0.2,0.5c0-0.1,0-0.1,0-0.2c0-0.2-0.1-0.4-0.1-0.6c0-0.2-0.1-0.4-0.3-0.5C32.5,6.2,32.5,6.5,32.5,6.7z"/>
			<path class="st0" d="M34.6,2.1c0.2-0.3,0.3-0.4,0.4-0.4c0.2,0.1,0,0,0.1,0.1c0,0,0,0.1,0,0.1C35,1.9,35,2,34.9,2l-0.2,0.2
				l-0.1,0.1c-0.1,0.2-0.2,0.3-0.2,0.5V3l0,0c-0.1-0.2-0.2-0.3-0.3-0.5c-0.1-0.2-0.1-0.4,0-0.6c0-0.2,0.1-0.3,0.3-0.4
				c0,0.1-0.1,0.1-0.1,0.2c0,0.2,0,0.4,0,0.6c0,0.2,0.1,0.4,0.2,0.5C34.5,2.6,34.5,2.3,34.6,2.1z"/>
			<path class="st0" d="M22.5,10.4c0.2,0.2,0.3,0.3,0.4,0.3c0,0,0,0,0-0.1c0,0,0,0,0-0.1c0-0.1-0.1-0.1-0.2-0.1l-0.2-0.1l-0.1-0.1
				c-0.1-0.1-0.2-0.2-0.3-0.4l0-0.1l0,0C22.1,9.8,22,10,22,10.1c-0.1,0.2-0.1,0.3,0,0.5c0,0.1,0.2,0.2,0.3,0.3c0,0-0.1-0.1-0.1-0.1
				c-0.1-0.1-0.1-0.3-0.1-0.4c0-0.2,0-0.3,0.1-0.4C22.3,10,22.4,10.2,22.5,10.4z"/>
			<path class="st0" d="M17.3,12.1c-0.2-0.2-0.4-0.3-0.5-0.2c0,0,0,0,0,0.1c0,0,0,0.1,0,0.1c0.1,0,0.1,0.1,0.2,0.1l0.2,0.1l0.1,0.1
				c0.1,0.1,0.3,0.2,0.3,0.4l0.1,0.1l0,0c0.1-0.2,0.1-0.3,0.1-0.5c0-0.2,0-0.4-0.1-0.5c-0.1-0.1-0.2-0.2-0.4-0.2
				c0,0,0.1,0.1,0.1,0.1c0.1,0.1,0.1,0.3,0.2,0.4c0,0.2,0,0.3,0,0.5C17.6,12.4,17.5,12.2,17.3,12.1z"/>
			<path class="st0" d="M19.5,11.1c0.3,0.2,0.5,0.2,0.6,0.1c0,0,0-0.1,0-0.1c0,0,0-0.1,0-0.1C20,11,19.9,11,19.8,11h-0.2h-0.2
				c-0.2-0.1-0.3-0.2-0.5-0.3l-0.1-0.1l0,0c0,0.2,0,0.4,0,0.6c0,0.2,0.1,0.4,0.2,0.5c0.1,0.1,0.3,0.2,0.5,0.2
				c-0.1,0-0.1-0.1-0.2-0.1c-0.1-0.1-0.2-0.3-0.3-0.5c-0.1-0.2-0.1-0.3-0.1-0.5C19.2,10.9,19.3,11,19.5,11.1z"/>
			<path class="st0" d="M12.7,10.1c-0.1,0.2-0.1,0.3,0,0.4h0.1h0.1c0-0.1,0-0.1,0-0.2c0,0,0-0.1,0-0.1c0-0.2,0.1-0.3,0.2-0.4
				l0.1-0.1l0,0c-0.1,0-0.3,0-0.4,0c-0.1,0-0.3,0.1-0.4,0.2c-0.1,0.1-0.1,0.2-0.1,0.3c0,0,0-0.1,0.1-0.1c0.1-0.1,0.2-0.2,0.3-0.2
				c0.1-0.1,0.2-0.1,0.3-0.1C12.9,9.9,12.8,10,12.7,10.1z"/>
			<path class="st0" d="M28.6,1.5c-0.3-0.4-0.5-0.6-0.7-0.5c0,0-0.1,0.1-0.1,0.1c0,0,0,0.1,0,0.1c0,0.1,0.1,0.1,0.3,0.3l0.3,0.2
				l0.2,0.2c0.2,0.2,0.3,0.5,0.4,0.7c0,0.1,0,0.2,0.1,0.3H29c0.2-0.2,0.4-0.5,0.5-0.8c0.1-0.3,0.1-0.6,0-0.9
				c-0.1-0.3-0.2-0.5-0.5-0.5c0.1,0.1,0.1,0.2,0.1,0.3c0.1,0.3,0.1,0.5,0.1,0.8c0,0.3-0.1,0.5-0.3,0.8C28.9,2.1,28.7,1.8,28.6,1.5z"
				/>
			<path class="st0" d="M41.4,7.7c-0.1,0.3-0.1,0.4,0,0.5h0.1c0,0,0,0,0.1,0c0-0.1,0-0.1,0-0.2c0-0.1,0-0.1,0-0.2
				c0-0.2,0-0.4,0.2-0.6L41.8,7l0,0c-0.2,0-0.3,0-0.5,0.1c-0.2,0.1-0.3,0.2-0.4,0.3c-0.1,0.1-0.1,0.3,0,0.4c0-0.1,0-0.1,0.1-0.2
				c0.1-0.1,0.2-0.2,0.3-0.3c0.1-0.1,0.3-0.2,0.4-0.2C41.6,7.3,41.5,7.5,41.4,7.7z"/>
			<path class="st0" d="M49.1,28.8c0,0.3,0.1,0.4,0.2,0.4h0.1c0,0,0,0,0,0c0-0.1,0-0.1-0.1-0.2l-0.1-0.2c-0.1-0.2-0.1-0.4-0.1-0.6
				v-0.1l0,0c-0.2,0.1-0.3,0.2-0.4,0.3c-0.1,0.1-0.2,0.3-0.3,0.4c0,0.1,0,0.3,0.1,0.4c0-0.1,0-0.1,0-0.2c0-0.1,0.1-0.3,0.2-0.4
				c0.1-0.1,0.2-0.2,0.3-0.3C49.1,28.4,49.1,28.6,49.1,28.8z"/>
			<path class="st0" d="M49.7,15.8c0.1-0.1,0.1-0.3,0-0.5c-0.1-0.2-0.2-0.3-0.3-0.4c-0.1-0.1-0.3-0.2-0.4-0.3
				c-0.1-0.1-0.3-0.1-0.5,0c-0.1,0.1-0.2,0.3-0.1,0.5c0.1,0.2,0.2,0.3,0.3,0.4c0.1,0.1,0.3,0.2,0.4,0.3C49.3,16,49.5,16,49.7,15.8z
				 M48.6,15c-0.1-0.2-0.1-0.3,0-0.3s0.2-0.1,0.3,0c0.1,0.1,0.2,0.2,0.3,0.2l-0.4,0.4C48.7,15.2,48.6,15.1,48.6,15z M48.8,15.4
				l0.4-0.4l0.1,0.1l0.1,0.2l0.1,0.2c0.1,0.2,0.1,0.3,0.1,0.4c-0.1,0.1-0.2,0.1-0.3,0c-0.1-0.1-0.2-0.2-0.3-0.3L48.8,15.4z"/>
			<path class="st0" d="M47.8,21.8c0-0.1-0.1-0.2-0.3-0.3c-0.2,0-0.3,0-0.5,0c-0.2,0-0.3,0.1-0.4,0.1c-0.1,0.1-0.2,0.2-0.2,0.3
				c0,0.2,0.1,0.3,0.3,0.3c0.2,0,0.3,0,0.5,0c0.2,0,0.3-0.1,0.4-0.1C47.7,22.1,47.8,22,47.8,21.8z M46.7,22.1c-0.2,0-0.2,0-0.2-0.1
				s0.1-0.2,0.2-0.2l0.3-0.1v0.5C46.8,22.2,46.7,22.2,46.7,22.1z M47,22.1l0-0.5h0.5c0.2,0,0.3,0,0.3,0.1c0,0.1,0,0.2-0.2,0.2
				c-0.1,0-0.2,0.1-0.3,0.1L47,22.1z"/>
			<path class="st0" d="M49.8,31.3c0.2,0.1,0.4,0,0.5-0.2c0.1-0.1,0.2-0.3,0.3-0.5c0.1-0.2,0.1-0.3,0.1-0.5c0-0.2-0.1-0.3-0.2-0.4
				c-0.2-0.1-0.4,0-0.5,0.2c-0.1,0.1-0.2,0.3-0.3,0.5c-0.1,0.2-0.1,0.3-0.1,0.5C49.6,31.1,49.7,31.3,49.8,31.3z M50.1,30
				c0.1-0.1,0.2-0.2,0.3-0.2c0.1,0,0.1,0.1,0.1,0.3c0,0.1,0,0.2-0.1,0.4l-0.5-0.2C50,30.2,50,30.1,50.1,30z M49.9,30.4l0.5,0.2v0.1
				c0,0.1,0,0.1-0.1,0.2l-0.1,0.2c-0.1,0.2-0.2,0.3-0.3,0.2c-0.1,0-0.1-0.1-0.2-0.3c0-0.1,0-0.3,0.1-0.4L49.9,30.4z"/>
			<path class="st0" d="M44.8,17.3c0.2-0.2,0.3-0.5,0.3-0.7c-0.1-0.3-0.2-0.6-0.3-0.8c-0.1-0.2-0.3-0.4-0.5-0.6
				c-0.2-0.2-0.5-0.2-0.7-0.1c-0.3,0.2-0.4,0.5-0.3,0.7c0.1,0.3,0.2,0.6,0.3,0.8c0.1,0.2,0.3,0.5,0.5,0.6
				C44.3,17.4,44.6,17.4,44.8,17.3z M43.4,15.6c-0.1-0.3-0.1-0.4,0.1-0.5c0.1-0.1,0.3,0,0.5,0.2c0.1,0.1,0.3,0.3,0.4,0.5l-0.7,0.4
				C43.6,16,43.5,15.8,43.4,15.6z M43.7,16.3l0.7-0.4l0.1,0.2c0.1,0.1,0.1,0.2,0.2,0.3c0,0.1,0.1,0.2,0.1,0.3c0.1,0.3,0.1,0.5,0,0.6
				c-0.1,0.1-0.3,0-0.5-0.1c-0.1-0.1-0.3-0.3-0.4-0.5L43.7,16.3z"/>
			<path class="st0" d="M39,3.5c0.2-0.1,0.3-0.2,0.3-0.5c0-0.2,0-0.4-0.1-0.6c-0.1-0.2-0.2-0.4-0.3-0.5c-0.1-0.2-0.3-0.3-0.5-0.2
				c-0.2,0.1-0.3,0.3-0.3,0.5c0,0.2,0,0.4,0.1,0.6c0.1,0.2,0.2,0.4,0.3,0.6C38.6,3.5,38.8,3.6,39,3.5z M38.3,2c0-0.2,0-0.3,0.1-0.4
				c0.1,0,0.2,0,0.3,0.2C38.8,2,38.9,2.1,39,2.3l-0.6,0.2C38.3,2.3,38.3,2.1,38.3,2z M38.4,2.5L39,2.3v0.1c0,0.1,0,0.2,0.1,0.3
				c0,0.1,0,0.2,0,0.3c0,0.3,0,0.4-0.1,0.4s-0.2,0-0.3-0.2c-0.1-0.1-0.1-0.3-0.2-0.4L38.4,2.5z"/>
			<path class="st0" d="M32.6,4.4c0.1,0.1,0.3,0,0.4-0.1c0.1-0.1,0.2-0.2,0.3-0.4c0.1-0.1,0.2-0.3,0.2-0.4c0-0.2,0-0.3-0.2-0.4
				C33.2,3,33,3.1,32.9,3.2c-0.1,0.1-0.2,0.2-0.3,0.4c-0.1,0.1-0.1,0.3-0.2,0.4C32.4,4.1,32.4,4.3,32.6,4.4z M33,3.3
				c0.1-0.1,0.2-0.1,0.3-0.1c0.1,0,0.1,0.1,0.1,0.3c0,0.1-0.1,0.2-0.1,0.3l-0.4-0.2C32.9,3.4,32.9,3.3,33,3.3L33,3.3z M32.7,3.6
				l0.4,0.2v0.1L33.1,4L33,4.2c-0.1,0.1-0.2,0.2-0.3,0.1S32.5,4.2,32.5,4c0-0.1,0.1-0.2,0.1-0.3L32.7,3.6z"/>
			<path class="st0" d="M21.4,11.4c-0.1-0.2-0.3-0.2-0.5-0.1c-0.2,0.1-0.4,0.2-0.6,0.3c-0.2,0.1-0.3,0.3-0.4,0.4
				c-0.1,0.2-0.2,0.4-0.1,0.5c0.1,0.2,0.4,0.2,0.5,0.1c0.2-0.1,0.4-0.2,0.6-0.3c0.2-0.1,0.3-0.3,0.5-0.4
				C21.5,11.8,21.5,11.5,21.4,11.4z M20.2,12.5c-0.2,0.1-0.3,0.1-0.4,0s0-0.2,0.1-0.4c0.1-0.1,0.2-0.2,0.4-0.3l0.3,0.5
				C20.4,12.3,20.3,12.4,20.2,12.5L20.2,12.5z M20.7,12.2l-0.3-0.5l0.1-0.1l0.2-0.1l0.2-0.1c0.2-0.1,0.4-0.1,0.5,0
				c0.1,0.1,0,0.2-0.1,0.4c-0.1,0.1-0.2,0.2-0.4,0.3L20.7,12.2z"/>
			<path class="st0" d="M41.3,8.4c-0.2,0-0.3,0.1-0.4,0.4c-0.1,0.2-0.1,0.4-0.1,0.6c0,0.2,0,0.4,0.1,0.6c0.1,0.2,0.2,0.4,0.4,0.4
				c0.2,0,0.3-0.1,0.5-0.4c0.1-0.2,0.1-0.4,0.1-0.6c0-0.2,0-0.4-0.1-0.6C41.7,8.6,41.5,8.4,41.3,8.4z M41.4,10.1
				c-0.1,0.2-0.1,0.3-0.2,0.3c-0.1,0-0.2-0.1-0.2-0.3c0-0.2,0-0.3,0-0.5h0.6C41.5,9.8,41.5,9.9,41.4,10.1L41.4,10.1z M41.5,9.5H41
				V9.4c0-0.1,0-0.2,0-0.3C41,9,41,8.9,41,8.9c0.1-0.3,0.1-0.4,0.3-0.4c0.1,0,0.2,0.1,0.2,0.3c0,0.2,0,0.3,0,0.5L41.5,9.5z"/>
			<path class="st0" d="M45.1,19.7L45.1,19.7l0.2-0.1c0,0,0,0,0.1,0c0,0,0,0,0.1,0c0,0.1,0,0.1-0.1,0.2c-0.1,0.1-0.2,0.1-0.3,0.1
				c-0.1,0-0.2-0.1-0.3-0.2c0-0.1-0.1-0.1-0.1-0.2c0-0.1,0.1-0.1,0.1-0.2l0.1-0.1H45h0c0.2-0.1,0.2-0.3,0.2-0.4
				c-0.1-0.1-0.2-0.2-0.3-0.2c0,0-0.1,0.1-0.2,0.1c-0.2,0.1-0.3,0.2-0.4,0.1c-0.1-0.1,0-0.1,0.1-0.2c0.1-0.1,0.3-0.1,0.4-0.1
				c0-0.1,0-0.1,0-0.2c-0.1-0.1-0.2-0.2-0.3-0.2c-0.1,0-0.3,0.1-0.4,0.1c-0.1,0-0.2,0-0.3,0c0,0,0-0.1,0.1-0.3
				c0.2-0.1,0.3-0.1,0.5,0c0.1-0.1,0.1-0.1,0.1-0.2l0,0l0,0c0,0,0-0.1,0-0.1c0,0,0.1,0,0.1,0c0,0,0.1,0,0.1,0.1c0,0.1,0,0.1,0,0.2
				c0,0-0.1,0.1-0.1,0.1l0,0c0.2,0,0.4,0.1,0.4,0.2c0.1,0.1,0.1,0.2,0,0.3c0.2,0,0.3,0.1,0.4,0.2c0.1,0.1,0.1,0.2,0,0.3
				c0,0.1-0.1,0.2-0.2,0.3l0,0H45H45h0c-0.1,0.1-0.2,0.2-0.1,0.3c0,0,0.1,0.1,0.1,0.1C45,19.7,45,19.7,45.1,19.7z"/>
			<path class="st0" d="M39.5,1.7h0.2c0,0,0,0,0,0c0,0,0,0,0-0.1c0-0.1-0.1-0.1-0.2-0.1c-0.1,0-0.2,0.1-0.2,0.1
				c-0.1,0.1-0.1,0.2-0.1,0.3c0,0.1,0,0.1,0.1,0.2c0.1,0,0.1,0,0.2,0h0.1h0.1c0.2,0,0.3,0,0.3,0.2c0,0.1,0,0.2-0.1,0.3h-0.2
				c-0.2,0-0.3,0.1-0.3,0.2c0,0.1,0.1,0.1,0.2,0.1c0.1,0,0.2-0.1,0.3-0.2c0.1,0,0.1,0.1,0.1,0.1c0,0.1,0,0.2-0.1,0.3
				c-0.1,0.1-0.2,0.1-0.3,0.1c-0.1,0-0.2,0.1-0.2,0.2c0,0.1,0.1,0.1,0.2,0.1c0.1-0.1,0.3-0.1,0.3-0.3c0.1,0,0.1,0,0.2,0.1v0.1
				c0,0,0,0,0.1,0c0,0,0,0,0.1,0c0,0,0-0.1,0-0.1c0-0.1,0-0.1-0.1-0.1c-0.1,0-0.1,0-0.2,0l0,0c0.1-0.1,0.2-0.3,0.2-0.4
				c0-0.1-0.1-0.2-0.2-0.2c0.1-0.1,0.1-0.2,0.1-0.4c0-0.1-0.1-0.2-0.2-0.3c-0.1,0-0.2,0-0.3,0l0,0h-0.1h-0.1h0c-0.1,0-0.2,0-0.2-0.1
				c0,0,0-0.1,0-0.1C39.4,1.7,39.4,1.7,39.5,1.7z"/>
			<path class="st0" d="M31.6,1.4L31.6,1.4L31.6,1.4L31.6,1.4L31.6,1.4c0.1,0,0.1-0.1,0-0.1c-0.1,0-0.1,0-0.2,0
				c-0.1,0-0.1,0.1-0.1,0.1c0,0,0,0.1,0,0.1c0,0,0.1,0.1,0.1,0.1h0.1h0.1c0.1,0,0.2,0.1,0.2,0.2c0,0.1-0.1,0.1-0.2,0.1h-0.1
				c-0.1,0-0.2,0-0.2,0c0,0.1,0,0.1,0.1,0.1c0.1,0,0.2,0,0.2,0c0,0,0,0.1,0,0.1c0,0.1,0,0.2-0.1,0.2h-0.2c-0.1,0-0.1,0-0.1,0
				c0,0,0,0.1,0.1,0.1c0.1,0,0.2,0,0.3,0c0.1,0,0.1,0,0.1,0.1l0,0c0,0,0,0,0,0.1h0.1l0,0c0,0,0-0.1,0-0.1c0,0-0.1,0-0.1-0.1l0,0
				c0.1,0,0.2-0.1,0.2-0.2c0-0.1,0-0.1,0-0.2c0.1,0,0.2-0.1,0.2-0.2c0-0.1,0-0.1,0-0.2c0-0.1-0.1-0.1-0.2-0.1h-0.2
				c-0.1,0-0.1,0-0.1-0.1c0,0-0.1-0.1,0-0.1C31.5,1.4,31.6,1.4,31.6,1.4z"/>
			<path class="st0" d="M47.6,12.6h0.1h0.1c0,0,0.1,0,0.1,0.1c0,0,0,0.1,0,0.1c0,0.1-0.1,0.1-0.2,0c-0.1-0.1-0.2-0.2-0.3-0.3
				c-0.1-0.1-0.1-0.2,0-0.3c0-0.1,0.1-0.1,0.2-0.2c0.1,0,0.2,0,0.3,0.1l0.1,0.1l0.1,0.1h0.1c0.3,0.1,0.4,0.1,0.5,0
				c0.1-0.1,0.1-0.3,0-0.4l-0.2-0.1c-0.3-0.1-0.4-0.3-0.3-0.3c0-0.1,0.1-0.1,0.3,0c0.1,0.1,0.3,0.2,0.4,0.4c0.1,0,0.1,0,0.2-0.1
				c0.1-0.1,0.1-0.3,0-0.4c-0.1,0-0.3-0.1-0.4-0.1c-0.1-0.1-0.2-0.2-0.2-0.3c0-0.1,0.1-0.1,0.2,0c0.2,0.1,0.3,0.3,0.4,0.5
				c0.1,0.1,0.2,0.1,0.2,0l0,0l0,0c0,0,0.1,0,0.2,0c0,0,0.1,0.1,0.1,0.1c0,0,0,0.1,0,0.1c0,0.1-0.1,0.1-0.2,0.1
				c-0.1,0-0.2,0-0.2-0.1l0,0c0.1,0.2,0.2,0.4,0.1,0.5c-0.1,0.1-0.2,0.1-0.3,0.1c0.1,0.2,0.1,0.3,0,0.5c-0.1,0.1-0.2,0.2-0.3,0.2
				c-0.1,0-0.3,0-0.4-0.1l0,0L48,12.6l-0.1-0.1h-0.1C47.7,12.5,47.6,12.5,47.6,12.6c-0.1,0-0.1,0.1-0.1,0.1
				C47.6,12.7,47.6,12.6,47.6,12.6z"/>
			<path class="st0" d="M10.9,17.5L10.9,17.5h-0.2c0,0,0,0,0,0.1c0,0,0,0,0,0.1c0,0.1,0.1,0.1,0.2,0c0.1-0.1,0.1-0.2,0.1-0.3
				c0-0.1,0-0.2-0.1-0.3c0-0.1-0.1-0.1-0.2-0.1c-0.1,0-0.1,0-0.2,0.1l0,0.2h0l0,0c-0.2,0.1-0.3,0.1-0.4,0C10,17.1,10,17,10,16.9
				l0.1-0.1c0.2-0.1,0.2-0.2,0.2-0.3c-0.1-0.1-0.1,0-0.2,0c-0.1,0.1-0.2,0.2-0.2,0.3c-0.1,0-0.1,0-0.1-0.1c-0.1-0.1-0.1-0.2,0-0.4
				c0.1-0.1,0.1-0.2,0.2-0.3c0.1-0.1,0.1-0.2,0.1-0.2c-0.1-0.1-0.1,0-0.2,0c-0.1,0.1-0.2,0.3-0.2,0.4c-0.1,0.1-0.1,0.1-0.2,0l0,0
				l0,0c0,0-0.1,0-0.1,0c0,0,0,0.1,0,0.1c0,0,0,0.1,0,0.1c0,0,0.1,0.1,0.1,0.1c0.1,0,0.1,0,0.2-0.1l0,0c-0.1,0.1-0.1,0.3,0,0.4
				c0.1,0.1,0.2,0.1,0.3,0.1c0,0.1,0,0.3,0.1,0.4c0.1,0.1,0.2,0.1,0.3,0.1c0.1,0,0.2,0,0.3-0.1l0,0l0,0h0l0,0c0.1-0.1,0.2-0.1,0.3,0
				C10.9,17.4,10.9,17.5,10.9,17.5C10.9,17.5,10.9,17.5,10.9,17.5z"/>
			<path class="st0" d="M50.1,15.8c0,0-0.1,0-0.1,0.1s0,0.1,0,0.1h0.6c0.1,0,0.2,0,0.3,0c0.1,0,0.2-0.1,0.2-0.3c0-0.1,0-0.1-0.1-0.2
				c0,0-0.1-0.1-0.2-0.1h-0.1c0,0-0.1,0-0.1,0.1s0.2,0.1,0.2,0.2s0,0.1-0.1,0.1c-0.2,0-0.3,0-0.5-0.1C50.3,15.9,50.2,15.8,50.1,15.8
				z"/>
			<path class="st0" d="M46.9,11.9c0,0,0,0.1,0.2,0.2s0.2,0.1,0.2,0c0-0.1,0.1-0.1,0.1-0.2l0.1-0.1l0.1-0.2l0.1-0.2l0.1-0.1
				c0.1-0.1,0.2-0.3,0.3-0.5c0.1-0.2,0-0.4-0.2-0.4c-0.1,0-0.2,0-0.3,0c-0.1,0-0.2,0.1-0.2,0.1c0,0-0.1,0.1-0.1,0.2c0,0,0,0.1,0,0.1
				c0.2-0.1,0.4-0.2,0.5-0.1c0.1,0,0.1,0.1,0,0.2c0,0,0,0,0,0c-0.1,0.2-0.3,0.4-0.5,0.5C47.2,11.6,47,11.7,46.9,11.9z"/>
			<path class="st0" d="M49.5,16.8c0,0,0.1,0,0.1-0.1s0-0.1,0-0.1h-0.2h-0.1h-0.2H49h-0.1c-0.1-0.1-0.3-0.2-0.4-0.3
				c-0.1,0-0.2,0.1-0.3,0.2c0,0.1,0,0.1,0,0.2c0,0.1,0.1,0.1,0.1,0.1h0.1c0,0,0.1,0,0.1,0c-0.1-0.1-0.2-0.2-0.2-0.3
				c0,0,0.1-0.1,0.1-0.1c0,0,0,0,0,0c0.2,0.1,0.3,0.1,0.4,0.2C49.1,16.7,49.3,16.8,49.5,16.8z"/>
			<path class="st0" d="M50.2,22.4C50.2,22.4,50.2,22.4,50.2,22.4c0.1-0.2,0.1-0.2,0.1-0.2h-0.1h-0.1H50h-0.1h-0.1h-0.2
				c-0.1,0-0.2,0.1-0.2,0.1c0,0,0,0.1,0,0.1c0,0,0.1,0.1,0.1,0.1h0.1c0,0,0,0,0,0c-0.1-0.1-0.1-0.1-0.1-0.2c0,0,0.1,0,0.1,0
				c0.1,0,0.2,0.1,0.3,0.1C50,22.5,50.1,22.4,50.2,22.4z"/>
			<path class="st0" d="M45.8,19.7c0,0,0,0.1,0.1,0.1s0.1,0,0.1,0c0,0,0-0.1,0-0.1v-0.1v-0.1v-0.1v-0.1c0-0.1,0-0.2,0-0.4
				c0-0.1-0.1-0.2-0.2-0.2c-0.1,0-0.1,0-0.2,0c-0.1,0-0.1,0.1-0.1,0.1c0,0,0,0.1,0,0.1c0,0,0,0.1,0,0.1c0.1-0.1,0.2-0.2,0.3-0.2
				c0,0,0.1,0,0.1,0.1c0,0,0,0,0,0c0,0.2-0.1,0.3-0.2,0.5C45.8,19.4,45.8,19.6,45.8,19.7z"/>
			<path class="st0" d="M51.6,22c0,0,0,0.1,0.1,0.1s0.1,0,0.1,0c0,0,0-0.1,0.1-0.1v-0.1v-0.1v-0.1v-0.1c0-0.1,0.1-0.2,0.1-0.4
				c0-0.1-0.1-0.2-0.2-0.3c-0.1,0-0.1,0-0.2,0c-0.1,0-0.1,0.1-0.1,0.1c0,0,0,0.1,0,0.1c0,0,0,0.1,0,0.1c0.1-0.1,0.2-0.2,0.3-0.1
				c0,0,0.1,0.1,0.1,0.1c0,0,0,0,0,0c-0.1,0.2-0.1,0.3-0.3,0.4C51.6,21.7,51.6,21.9,51.6,22z"/>
			<path class="st0" d="M35.4,1.5c0,0-0.1,0-0.2-0.1s0-0.1,0-0.2l0.2-0.1L35.5,1l0.2-0.1l0.2-0.1L36,0.8c0.1-0.1,0.3-0.1,0.4-0.2
				c0.1,0,0.3,0,0.4,0.2c0,0.1,0,0.2,0,0.2c0,0.1-0.1,0.1-0.1,0.2l-0.1,0c0,0-0.1,0-0.1,0c0.1-0.2,0.2-0.3,0.1-0.4c0,0-0.1,0-0.2,0
				c0,0,0,0,0,0C36.2,0.9,36,1,35.9,1.2C35.7,1.3,35.6,1.4,35.4,1.5z"/>
			<path class="st0" d="M13.5,9.2c0,0-0.1,0-0.1,0.1s0,0.1,0,0.1h0.2h0.1h0.2H14h0.1c0.1,0,0.3,0,0.4,0c0.1,0,0.3-0.1,0.3-0.3
				c0-0.1,0-0.1,0-0.2c0-0.1-0.1-0.1-0.2-0.1h-0.1c0,0-0.1,0-0.1,0.1c0.2,0.1,0.2,0.2,0.2,0.3c0,0.1-0.1,0.2-0.1,0.3
				c-0.2,0-0.3-0.1-0.5-0.2C13.8,9.3,13.7,9.2,13.5,9.2z"/>
			<path class="st0" d="M25,0.9c0,0,0.1,0,0.1,0S25.2,1,25.2,1l-0.1,0.1l0,0.1L25,1.4L25,1.5l0,0.1c-0.1,0.1-0.1,0.2-0.2,0.3
				c-0.1,0.1-0.2,0.1-0.3,0c0,0-0.1-0.1-0.1-0.1c0,0,0-0.1,0-0.1l0.1,0c0,0,0,0,0.1,0c0,0.1,0,0.2,0,0.3c0,0,0.1,0,0.1,0
				c0.1-0.1,0.1-0.3,0.2-0.4C24.9,1.2,25,1.1,25,0.9z"/>
			<path class="st0" d="M44.1,11.1c0.3,0,0.6,0,0.8-0.2c0.2-0.2,0.4-0.4,0.4-0.7c0-0.3-0.1-0.7-0.3-0.9c-0.2-0.2-0.5-0.5-0.8-0.7
				c-0.3-0.2-0.4-0.4-0.4-0.5c0,0,0,0,0-0.1C44,8,44,8,44,8c0.2,0,0.6,0.3,1.2,0.9c0.1,0,0.1-0.1,0.2-0.1c0.1-0.1,0.1-0.1,0.1-0.2
				c0-0.1-0.2-0.3-0.5-0.5c-0.2-0.1-0.5-0.2-0.8-0.3c-0.1,0-0.2,0-0.3,0c-0.1,0.1-0.2,0.2-0.2,0.3c0,0.1,0.1,0.3,0.4,0.6l0.3,0.3
				l0.3,0.3c-0.1-0.1-0.3-0.1-0.4-0.1c-0.3,0-0.5,0-0.7,0.2c-0.2,0.2-0.3,0.4-0.3,0.7c-0.1,0.5,0.3,1,0.8,1.1
				C44,11,44.1,11,44.1,11.1L44.1,11.1z M43.9,9.5c0.1-0.2,0.3-0.3,0.5-0.3c0.4,0,0.6,0.3,0.5,0.8c0,0.2-0.1,0.4-0.3,0.6
				c-0.1,0.2-0.3,0.3-0.5,0.3c-0.2,0-0.3-0.1-0.4-0.3c-0.1-0.2-0.1-0.3-0.1-0.5C43.6,9.9,43.7,9.7,43.9,9.5z"/>
			<path class="st0" d="M33.7,1.3c0.1-0.1,0.1-0.3,0.1-0.4c0-0.1-0.1-0.3-0.2-0.3c-0.1-0.1-0.3-0.1-0.5-0.1c-0.2,0-0.3,0.1-0.5,0.2
				c-0.1,0.1-0.2,0.1-0.3,0.1l0,0l0,0c0.2-0.2,0.4-0.3,0.6-0.4c0,0,0-0.1,0-0.1c0,0,0,0,0-0.1c0,0-0.2,0-0.3,0.1
				c-0.1,0.1-0.2,0.2-0.3,0.2c0,0,0,0.1,0,0.1c0,0.1,0,0.1,0.1,0.1c0.1,0,0.2,0,0.3,0L33,0.7l0.2-0.1c-0.1,0-0.1,0.1-0.1,0.1
				c-0.1,0.1-0.1,0.2-0.1,0.4c0,0.1,0.1,0.2,0.2,0.3C33.3,1.6,33.6,1.5,33.7,1.3C33.8,1.3,33.8,1.3,33.7,1.3L33.7,1.3z M33,1
				C33,0.9,33,0.8,33,0.7c0.1-0.2,0.2-0.2,0.4,0c0.1,0.1,0.2,0.1,0.2,0.2c0.1,0.1,0.1,0.2,0,0.3c0,0.1-0.1,0.1-0.2,0.1
				c-0.1,0-0.2,0-0.2-0.1C33.1,1.2,33,1.1,33,1z"/>
			<path class="st0" d="M24.5,8.6c0,0.1,0,0.3,0,0.4c0.1,0.1,0.2,0.2,0.3,0.2c0.1,0,0.3,0,0.4-0.1c0.1-0.1,0.2-0.2,0.3-0.3
				c0.1-0.1,0.2-0.1,0.2-0.1l0,0l0,0c0,0.1-0.2,0.3-0.5,0.5c0,0,0,0.1,0,0.1c0,0,0,0,0.1,0.1c0.1,0,0.1-0.1,0.3-0.2
				c0.1-0.1,0.1-0.2,0.2-0.3c0,0,0-0.1,0-0.1c0-0.1-0.1-0.1-0.1-0.1c-0.1,0-0.2,0-0.3,0.1l-0.1,0.1l0,0.2c0,0,0.1-0.1,0.1-0.2
				c0-0.1,0-0.2,0-0.3c-0.1-0.1-0.2-0.2-0.3-0.2C24.9,8.2,24.7,8.4,24.5,8.6C24.6,8.6,24.6,8.6,24.5,8.6L24.5,8.6z M25.2,8.6
				c0.1,0.1,0.1,0.2,0.1,0.3c0,0.2-0.2,0.2-0.4,0.2c-0.1,0-0.2-0.1-0.3-0.2c-0.1-0.1-0.1-0.2-0.1-0.3c0-0.1,0.1-0.1,0.2-0.1
				c0.1,0,0.2,0,0.2,0C25.1,8.5,25.2,8.5,25.2,8.6L25.2,8.6z"/>
			<path class="st0" d="M31.5,3c-0.2,0-0.4,0.1-0.5,0.2c-0.1,0.1-0.2,0.3-0.2,0.5c0,0.2,0.1,0.4,0.3,0.5c0.2,0.1,0.3,0.2,0.5,0.3
				c0.2,0.1,0.3,0.2,0.3,0.2l0,0h-0.1c-0.3-0.1-0.6-0.2-0.8-0.4c0,0-0.1,0-0.1,0.1c0,0,0,0.1,0,0.1c0,0.1,0.1,0.2,0.4,0.2
				c0.1,0.1,0.3,0.1,0.5,0.1c0.1,0,0.1,0,0.2-0.1c0.1,0,0.1-0.1,0.1-0.2c0-0.1-0.1-0.2-0.3-0.3l-0.3,0l-0.2-0.1c0.1,0,0.2,0,0.3,0
				c0.1,0,0.3,0,0.4-0.2c0.1-0.1,0.2-0.3,0.1-0.4C32.1,3.3,31.9,3,31.5,3C31.5,3,31.5,3,31.5,3z M31.8,3.9c-0.1,0.1-0.2,0.2-0.3,0.2
				c-0.2,0-0.4-0.1-0.4-0.4c0-0.1,0-0.3,0.1-0.4c0.1-0.1,0.2-0.2,0.3-0.2c0.1,0,0.2,0.1,0.3,0.2c0.1,0.1,0.1,0.2,0.1,0.3
				C31.9,3.7,31.8,3.8,31.8,3.9L31.8,3.9z"/>
			<path class="st0" d="M27.2,0.5c0-0.2-0.1-0.3-0.3-0.4C26.8,0,26.6-0.1,26.4,0C26.2,0,26,0.2,26,0.4c-0.1,0.2-0.2,0.4-0.2,0.6
				c-0.1,0.2-0.1,0.3-0.2,0.3h0c0,0,0,0,0,0c0-0.3,0.1-0.6,0.3-0.9c0,0-0.1-0.1-0.1-0.1c0,0-0.1,0-0.1,0c-0.1,0-0.1,0.1-0.2,0.4
				c0,0.2,0,0.3,0,0.5c0,0.1,0,0.1,0.1,0.2c0.1,0,0.1,0,0.2,0c0.1,0,0.2-0.1,0.3-0.3L26,0.8l0.1-0.2c0,0.1,0,0.2,0,0.3
				c0,0.2,0.1,0.3,0.3,0.4c0.1,0.1,0.3,0.1,0.5,0c0.1,0,0.2-0.1,0.3-0.2C27.2,0.8,27.3,0.7,27.2,0.5z M26.4,1
				c-0.1,0-0.2-0.2-0.3-0.3c-0.1-0.2,0.1-0.4,0.4-0.4c0.1,0,0.3,0,0.4,0c0.1,0,0.2,0.1,0.3,0.3c0,0.1,0,0.2-0.1,0.3
				c-0.1,0.1-0.2,0.1-0.3,0.2C26.7,1,26.5,1,26.4,1z"/>
			<path class="st0" d="M50.8,15.4c0.1-0.1,0.2-0.3,0.3-0.4c0-0.2,0-0.4-0.1-0.5c-0.1-0.2-0.3-0.2-0.5-0.2c-0.2,0-0.4,0-0.6,0
				c-0.2,0-0.3,0-0.4,0c0,0,0,0,0-0.1c0,0,0,0,0-0.1C49.7,14,50,14,50.3,14c0,0,0-0.1,0-0.1c0,0,0-0.1,0-0.1c0-0.1-0.2-0.1-0.4,0
				c-0.1,0.1-0.3,0.1-0.4,0.2c-0.1,0-0.1,0.1-0.1,0.2c0,0.1,0,0.1,0,0.2c0.1,0.1,0.2,0.1,0.4,0.1h0.5c-0.1,0-0.2,0.1-0.2,0.1
				c-0.1,0.1-0.2,0.2-0.2,0.4c0,0.2,0,0.3,0.2,0.4C50.2,15.6,50.5,15.7,50.8,15.4C50.8,15.5,50.8,15.5,50.8,15.4L50.8,15.4z
				 M50.1,14.9c0-0.1,0-0.3,0.1-0.3c0.2-0.2,0.4-0.1,0.5,0.1c0.1,0.1,0.1,0.2,0.2,0.4c0,0.1,0,0.3-0.1,0.4c-0.1,0.1-0.2,0.1-0.3,0
				c-0.1,0-0.2-0.1-0.3-0.2C50.1,15.1,50.1,15,50.1,14.9L50.1,14.9z"/>
			<path class="st0" d="M51.3,21.8c0.1-0.2,0.1-0.4,0-0.5c-0.1-0.2-0.2-0.3-0.3-0.4c-0.2-0.1-0.4,0-0.6,0c-0.2,0.1-0.3,0.2-0.5,0.3
				c-0.2,0.1-0.3,0.2-0.3,0.1l0,0c0,0,0,0,0-0.1c0-0.1,0.3-0.3,0.7-0.6c0,0,0-0.1,0-0.1c0,0,0-0.1-0.1-0.1c-0.1,0-0.2,0.1-0.4,0.2
				c-0.1,0.1-0.2,0.2-0.3,0.4c0,0.1,0,0.1,0,0.2c0,0.1,0.1,0.1,0.1,0.1c0.1,0,0.2,0,0.4-0.1l0.2-0.1l0.2-0.1
				c-0.1,0.1-0.1,0.1-0.1,0.2c-0.1,0.1-0.1,0.3,0,0.5c0.1,0.1,0.2,0.2,0.3,0.3c0.3,0.1,0.6,0,0.7-0.3C51.4,21.8,51.4,21.8,51.3,21.8
				L51.3,21.8z M50.3,21.6c-0.1-0.1-0.1-0.2-0.1-0.4c0.1-0.2,0.3-0.3,0.5-0.2c0.1,0,0.2,0.1,0.3,0.2c0.1,0.1,0.1,0.2,0.1,0.4
				c0,0.1-0.1,0.2-0.3,0.2c-0.1,0-0.2,0-0.3,0C50.5,21.8,50.4,21.8,50.3,21.6z"/>
			<path class="st0" d="M38.9,8.9c-0.2,0-0.3,0.1-0.4,0.2c-0.1,0.1-0.1,0.3-0.1,0.4c0,0.2,0.1,0.3,0.3,0.4c0.2,0.1,0.3,0.2,0.5,0.3
				c0.2,0.1,0.3,0.1,0.3,0.2l0,0l0,0c-0.3,0-0.5-0.1-0.7-0.3c0,0-0.1,0-0.1,0.1c0,0,0,0.1,0,0.1c0,0.1,0.1,0.1,0.3,0.2
				c0.1,0,0.3,0.1,0.4,0.1c0.1,0,0.1,0,0.2-0.1c0,0,0.1-0.1,0.1-0.2c0-0.1-0.1-0.1-0.3-0.3l-0.2-0.1l-0.2-0.1c0.1,0,0.1,0,0.2,0
				c0.1,0,0.3-0.1,0.3-0.2c0-0.1,0-0.2,0-0.3C39.5,9,39.2,8.8,38.9,8.9C38.9,8.9,38.9,8.9,38.9,8.9L38.9,8.9z M39.2,9.6
				c0,0.1-0.1,0.2-0.3,0.2c-0.2,0-0.3-0.1-0.3-0.3c0-0.1,0-0.2,0-0.3c0-0.1,0.1-0.2,0.2-0.2c0.1,0,0.2,0,0.2,0.1
				c0.1,0.1,0.1,0.2,0.1,0.3C39.3,9.4,39.3,9.5,39.2,9.6L39.2,9.6z"/>
			<path class="st0" d="M49.1,31.6c0.1-0.2,0-0.4,0-0.5c-0.1-0.2-0.2-0.3-0.4-0.3c-0.2,0-0.4,0-0.6,0.1c-0.2,0.1-0.3,0.2-0.5,0.4
				c-0.2,0.1-0.3,0.2-0.3,0.2l0,0c0,0,0,0,0-0.1c0-0.1,0.3-0.3,0.7-0.6c0,0,0-0.1,0-0.1c0,0-0.1-0.1-0.1-0.1c-0.1,0-0.2,0.1-0.3,0.3
				c-0.1,0.1-0.2,0.3-0.3,0.4c0,0.1,0,0.1,0,0.2c0,0.1,0.1,0.1,0.1,0.1c0.1,0,0.2-0.1,0.4-0.2l0.2-0.1l0.2-0.1
				c-0.1,0.1-0.1,0.1-0.1,0.2c0,0.1,0,0.3,0.1,0.4c0.1,0.1,0.2,0.2,0.4,0.3C48.8,32.2,49.1,32,49.1,31.6
				C49.2,31.7,49.2,31.7,49.1,31.6L49.1,31.6z M48.1,31.6C48,31.6,48,31.4,48,31.3c0.1-0.2,0.2-0.3,0.5-0.2c0.1,0,0.2,0.1,0.3,0.2
				c0.1,0.1,0.2,0.2,0.1,0.4c0,0.1-0.1,0.2-0.2,0.2c-0.1,0-0.2,0-0.3,0C48.4,31.8,48.3,31.7,48.1,31.6L48.1,31.6z"/>
			<path class="st0" d="M15.9,11.1c0.1,0.2,0.2,0.3,0.4,0.4c0.2,0.1,0.3,0.1,0.5,0c0.2-0.1,0.3-0.3,0.4-0.4c0.1-0.2,0.1-0.4,0.1-0.6
				c0-0.2,0-0.3,0.1-0.3h0l0,0c0,0.3,0,0.6-0.1,0.9c0,0,0.1,0.1,0.1,0.1c0,0,0.1,0,0.1,0c0.1,0,0.1-0.1,0.1-0.4c0-0.2,0-0.3-0.1-0.5
				c0,0-0.1-0.1-0.1-0.1c-0.1,0-0.1,0-0.2,0c-0.1,0-0.1,0.1-0.2,0.4L17,10.6L17,10.8c0-0.1,0-0.2,0-0.3c-0.1-0.1-0.2-0.3-0.3-0.3
				c-0.1-0.1-0.3-0.1-0.5,0c-0.3,0.1-0.4,0.4-0.3,0.7C15.9,11,15.9,11,15.9,11.1L15.9,11.1z M16.6,10.5c0.1,0,0.2,0.1,0.3,0.2
				c0.1,0.2,0,0.4-0.3,0.5c-0.1,0-0.3,0-0.4,0c-0.1,0-0.3-0.1-0.3-0.2c0-0.1,0-0.2,0.1-0.3c0.1-0.1,0.2-0.2,0.3-0.2
				C16.4,10.5,16.5,10.5,16.6,10.5z"/>
			<path class="st0" d="M9.2,17.8C9.1,18,9,18.1,9,18.3c0,0.2,0.1,0.3,0.2,0.5c0.2,0.1,0.4,0.2,0.6,0.1c0.2,0,0.4-0.1,0.6-0.2
				c0.2-0.1,0.3-0.1,0.4,0c0,0,0,0,0,0c0,0,0,0,0,0.1c-0.3,0.2-0.5,0.3-0.9,0.3c0,0,0,0.1,0,0.1c0,0,0,0.1,0,0.1
				c0.1,0,0.2,0,0.4-0.1c0.1-0.1,0.3-0.2,0.4-0.3c0-0.1,0.1-0.1,0.1-0.2c0-0.1,0-0.1-0.1-0.2c-0.1-0.1-0.2-0.1-0.4,0l-0.2,0.1
				l-0.2,0.1c0.1,0,0.1-0.1,0.2-0.2c0.1-0.1,0.1-0.3,0.1-0.4c0-0.2-0.1-0.3-0.2-0.4C9.8,17.6,9.4,17.6,9.2,17.8
				C9.2,17.8,9.2,17.8,9.2,17.8L9.2,17.8z M10.1,18.2c0.1,0.1,0,0.3,0,0.4c-0.1,0.2-0.3,0.2-0.6,0c-0.1-0.1-0.2-0.2-0.2-0.3
				c-0.1-0.1-0.1-0.3,0-0.4c0.1-0.1,0.2-0.1,0.3-0.1c0.1,0,0.2,0.1,0.3,0.1C9.9,18,10,18.1,10.1,18.2z"/>
			<path class="st0" d="M41.9,3c0.2,0.1,0.3,0.3,0.4,0.5c0.1,0.2,0,0.4-0.1,0.6c-0.2,0.2-0.4,0.3-0.7,0.3c-0.3,0-0.5,0-0.8,0
				c-0.3,0-0.4,0-0.5,0.1c0,0,0,0,0,0.1c0,0,0,0,0,0.1c0.4,0.1,0.8,0.2,1.2,0.1c0,0,0,0.1,0,0.2c0,0,0,0.1,0,0.1
				c-0.1,0.1-0.2,0.1-0.6,0c-0.2,0-0.4-0.1-0.6-0.2c-0.1,0-0.1-0.1-0.2-0.2c0-0.1,0-0.2,0-0.2c0.1-0.1,0.2-0.1,0.5-0.1h0.6
				c-0.1,0-0.2-0.1-0.3-0.1c-0.2-0.1-0.3-0.3-0.3-0.5c0-0.2,0-0.4,0.1-0.5c0.1-0.2,0.3-0.3,0.5-0.3C41.5,2.8,41.7,2.9,41.9,3z
				 M41,3.8c0,0.2,0.1,0.3,0.2,0.4c0.2,0.2,0.5,0.1,0.7-0.2C42,3.8,42,3.7,42,3.5c0-0.2,0-0.3-0.2-0.4c-0.1-0.1-0.3-0.1-0.4,0
				c-0.1,0.1-0.2,0.1-0.3,0.3C41,3.5,41,3.6,41,3.8L41,3.8z"/>
			<path class="st0" d="M16.3,18c0,0.1,0,0.2,0.1,0.3c0.1,0.1,0.2,0.1,0.3,0.1c0.1,0,0.2-0.1,0.3-0.2c0.1-0.1,0.2-0.2,0.2-0.3
				c0.1-0.1,0.1-0.2,0.2-0.2l0,0l0,0c-0.1,0.2-0.2,0.4-0.3,0.5c0,0,0,0,0,0.1h0.1c0,0,0.1-0.1,0.2-0.2c0.1-0.1,0.1-0.1,0.2-0.2
				c0,0,0-0.1,0-0.1c0,0-0.1-0.1-0.1-0.1c0,0-0.1,0.1-0.2,0.2L17.1,18L17,18.1c0,0,0-0.1,0-0.1c0-0.1,0-0.2-0.1-0.3
				c-0.1-0.1-0.2-0.1-0.3-0.1C16.4,17.6,16.3,17.8,16.3,18C16.3,18,16.3,18,16.3,18L16.3,18z M16.9,17.9c0.1,0,0.1,0.1,0.1,0.2
				c0,0.1-0.1,0.2-0.3,0.2c-0.1,0-0.2,0-0.2-0.1c-0.1,0-0.1-0.1-0.1-0.2c0-0.1,0-0.1,0.1-0.2c0.1,0,0.1-0.1,0.2,0
				C16.7,17.8,16.8,17.8,16.9,17.9L16.9,17.9z"/>
			<path class="st0" d="M11.7,18.1c0,0.1,0,0.2,0,0.3c0,0.1,0.1,0.1,0.2,0.1c0.1,0,0.2,0,0.3-0.1l0.2-0.2c0.1-0.1,0.1-0.1,0.2-0.1
				l0,0l0,0c0,0.1-0.1,0.2-0.3,0.4c0,0,0,0,0,0.1l0,0c0,0,0.1,0,0.2-0.1c0.1-0.1,0.1-0.1,0.1-0.2c0,0,0-0.1,0-0.1c0,0,0-0.1-0.1-0.1
				c0,0-0.1,0-0.2,0.1l-0.1,0.1l-0.1,0.1c0,0,0-0.1,0-0.1c0-0.1,0-0.2,0-0.2c0-0.1-0.1-0.1-0.2-0.1c-0.2,0-0.3,0.1-0.4,0.2
				C11.6,18,11.6,18,11.7,18.1L11.7,18.1z M12.2,18.1c0.1,0,0.1,0.1,0.1,0.2c0,0.1-0.1,0.2-0.3,0.1c-0.1,0-0.1-0.1-0.2-0.1
				c-0.1,0-0.1-0.1-0.1-0.2c0-0.1,0.1-0.1,0.1-0.1c0.1,0,0.1,0,0.2,0C12.1,18.1,12.2,18.1,12.2,18.1L12.2,18.1z"/>
			<path class="st0" d="M23.3,7.7c0.1,0,0.3-0.1,0.3-0.2c0.1-0.1,0.1-0.2,0.1-0.4c0-0.2-0.1-0.3-0.3-0.4c-0.1-0.1-0.3-0.1-0.4-0.2
				c-0.1-0.1-0.2-0.1-0.2-0.2l0,0l0,0c0.2,0,0.4,0.1,0.6,0.3c0,0,0,0,0.1-0.1c0,0,0-0.1,0-0.1c0-0.1-0.1-0.1-0.3-0.2
				c-0.1,0-0.2,0-0.4,0c-0.1,0-0.1,0-0.1,0.1c0,0,0,0.1,0,0.1c0,0.1,0.1,0.1,0.2,0.2l0.2,0.1l0.2,0.1c-0.1,0-0.1,0-0.2,0
				c-0.1,0-0.2,0.1-0.3,0.2c-0.1,0.1-0.1,0.2-0.1,0.3c0,0.2,0.2,0.4,0.5,0.4c0,0,0,0,0,0L23.3,7.7z M23,7c0-0.1,0.1-0.2,0.2-0.2
				c0.2,0,0.3,0.1,0.3,0.3c0,0.1,0,0.2,0,0.3c0,0.1-0.1,0.2-0.2,0.2c-0.1,0-0.2,0-0.2-0.1c-0.1-0.1-0.1-0.1-0.1-0.2
				C23,7.2,23,7.1,23,7z"/>
			<path class="st0" d="M38.9,4.1L38.9,4.1H39c0.2,0,0.2,0.2,0.2,0.4c0,0.4,0,0.1,0,0.1v0.1l-0.1,0.1L39,5c-0.1,0.1-0.2,0.2-0.2,0.2
				c0,0,0,0.1,0,0.1c0,0,0.1,0.1,0.1,0.1c0.1,0,0.2,0,0.2-0.1l0-0.1l0-0.1l0.3-0.3l0.2-0.3c0,0.1,0,0.1,0,0.2c0,0.4,0.1,0.7,0.4,0.7
				c0.1,0,0.1,0,0.2,0c0.1,0,0.1,0,0.1-0.1c0-0.1,0-0.1-0.1-0.1c0-0.1-0.1-0.1-0.1-0.1l0,0l0,0l0,0l0,0C40.1,5,40,4.9,40,4.8
				c0-0.1,0-0.2,0-0.3l0.1-0.1l0.1-0.1c0.1-0.1,0.2-0.2,0.2-0.3c0,0,0-0.1,0-0.1c0,0-0.1,0-0.1,0c-0.1,0-0.2,0.1-0.2,0.1L40,4.1
				c-0.2,0.2-0.3,0.4-0.5,0.6c0-0.1,0-0.2,0-0.3c0-0.4-0.1-0.6-0.3-0.6c-0.1,0-0.1,0-0.2,0.1C39,3.9,39,3.9,39,4
				C38.8,4.1,38.8,4.1,38.9,4.1z"/>
			<path class="st0" d="M28.2,0L28.2,0c0.2,0,0.2,0.1,0.1,0.3v0.1v0.1h-0.1h-0.1c-0.1,0-0.1,0.1-0.1,0.1c0,0,0,0.1,0,0.1
				c0,0,0,0.1,0.1,0.1c0,0,0.1,0,0.1,0l0-0.1l0,0l0.2-0.1l0.2-0.1v0.1c-0.1,0.3-0.1,0.4,0.1,0.5h0.1c0.1,0,0.1,0,0.1,0
				c0,0,0-0.1,0-0.1c0,0,0-0.1-0.1-0.1h-0.1c-0.1,0-0.1-0.1-0.1-0.2c0-0.1,0-0.2,0-0.2l0,0H29c0.1,0,0.1-0.1,0.2-0.2
				c0,0,0-0.1,0-0.1c0,0,0,0-0.1,0c0,0-0.1,0-0.2,0l-0.1,0.2c-0.1,0.1-0.3,0.2-0.4,0.2c0-0.1,0.1-0.1,0.1-0.2c0.1-0.2,0-0.4-0.1-0.4
				c0,0-0.1,0-0.1,0C28.2-0.1,28.2-0.1,28.2,0C28.2,0,28.2,0,28.2,0z"/>
			<path class="st0" d="M22.4,1.6L22.4,1.6h0.1c0.1,0.2,0,0.3-0.3,0.5l-0.1,0.1L22,2.3l-0.2,0h-0.2c-0.1,0-0.2,0-0.3,0
				c0,0-0.1,0.1-0.1,0.1c0,0,0,0.1,0,0.1c0.1,0.1,0.1,0.1,0.2,0.1h0.3l0.4,0.1l0.4,0.1l-0.2,0.1c-0.4,0.3-0.6,0.5-0.4,0.8
				c0,0.1,0.1,0.1,0.2,0.1c0.1,0.1,0.1,0.1,0.2,0c0,0,0.1-0.1,0.1-0.2c0-0.1,0-0.1,0-0.2l0,0h0h0l0,0c-0.1-0.1,0-0.2,0.1-0.3
				c0.1-0.1,0.2-0.2,0.3-0.3L23,2.9l0.2,0c0.1,0.1,0.3,0.1,0.4,0c0,0,0.1-0.1,0.1-0.1c0,0,0-0.1,0-0.1c-0.1-0.1-0.2-0.1-0.3-0.1
				h-0.3c-0.3,0-0.6-0.1-0.9-0.1l0.3-0.2C22.9,2,23,1.7,22.9,1.5c0-0.1-0.1-0.1-0.2-0.1c-0.1,0-0.1,0-0.2,0
				C22.4,1.5,22.4,1.6,22.4,1.6z"/>
			<path class="st0" d="M34,7.7L34,7.7C34,7.7,34,7.7,34,7.7c0,0.2-0.1,0.3-0.4,0.2h-0.1h-0.1l-0.1-0.1l-0.1-0.1
				c-0.1-0.1-0.1-0.2-0.2-0.2c0,0-0.1,0-0.1,0c0,0,0,0.1,0,0.1c0,0.1,0,0.1,0.1,0.2l0.1,0.1l0.1,0.1l0.2,0.2l0.2,0.2h-0.2
				c-0.4,0-0.6,0.1-0.6,0.3c0,0,0,0.1,0,0.1c0,0.1,0,0.1,0.1,0.1c0,0,0.1,0,0.1-0.1c0,0,0.1-0.1,0.1-0.1l0,0l0,0l0,0l0,0
				c0-0.1,0.1-0.1,0.2-0.1h0.3l0.1,0.1l0.1,0.1C33.9,8.9,34,9,34.1,9c0,0,0.1,0,0.1,0c0,0,0-0.1,0-0.1c0-0.1,0-0.2-0.1-0.2L34,8.6
				c-0.2-0.2-0.3-0.4-0.5-0.6h0.3c0.3,0,0.5-0.1,0.5-0.2c0,0,0-0.1,0-0.2c0,0-0.1-0.1-0.1-0.1C34.1,7.6,34,7.6,34,7.7z"/>
			<path class="st0" d="M40.6,10.7L40.6,10.7C40.6,10.7,40.6,10.8,40.6,10.7c0,0.2-0.1,0.3-0.4,0.2h-0.1H40l-0.1-0.1l-0.1-0.1
				c-0.1-0.1-0.1-0.1-0.2-0.1c0,0-0.1,0-0.1,0c0,0,0,0.1,0,0.1c0,0.1,0,0.1,0.1,0.2l0.1,0.1l0.1,0.1l0.2,0.2l0.2,0.2H40
				c-0.4,0-0.6,0.1-0.6,0.3c0,0,0,0.1,0,0.1c0,0.1,0,0.1,0.1,0.1c0,0,0.1,0,0.1-0.1c0,0,0.1-0.1,0.1-0.1l0,0l0,0l0,0l0,0
				c0-0.1,0.1-0.1,0.2-0.1h0.3l0.1,0.1l0.1,0.1c0.1,0.1,0.1,0.1,0.3,0.2c0,0,0.1,0,0.1,0c0,0,0-0.1,0-0.1c0-0.1,0-0.2-0.1-0.2
				l-0.2-0.1c-0.2-0.1-0.3-0.3-0.5-0.5h0.3c0.3,0,0.5-0.1,0.5-0.2c0,0,0-0.1,0-0.1c0,0-0.1-0.1-0.1-0.1
				C40.6,10.7,40.6,10.7,40.6,10.7z"/>
			<path class="st0" d="M27.7,8.4L27.7,8.4L27.7,8.4c0.1,0,0.1,0.1,0.2,0.2v0.1v0.1v0.1v0.1c0,0,0,0.1,0,0.1l0,0c0,0,0,0,0.1,0
				c0,0,0.1-0.1,0.1-0.1V8.8l0.1-0.2l0.1-0.2v0.1c0.1,0.2,0.2,0.3,0.3,0.3l0.1-0.1c0,0,0-0.1,0-0.1c0,0,0,0-0.1-0.1c0,0-0.1,0-0.1,0
				l0,0l0,0l0,0l0,0c0,0-0.1,0-0.1-0.1l-0.1-0.2V8.2V8.1c0-0.1,0-0.1,0-0.2l0,0h0c0,0-0.1,0.1-0.1,0.1v0.1c0,0.1-0.1,0.3-0.1,0.4
				L28,8.4c-0.1-0.2-0.2-0.3-0.3-0.2c0,0-0.1,0-0.1,0.1C27.7,8.3,27.7,8.3,27.7,8.4C27.7,8.3,27.7,8.4,27.7,8.4z"/>
			<path class="st0" d="M19.7,3.7L19.7,3.7L19.7,3.7c0.1,0,0.2,0,0.3,0.2V4v0.1l0,0.1v0.1c0,0.1,0,0.1,0,0.2c0,0,0,0.1,0.1,0.1
				c0,0,0.1,0,0.1,0c0.1,0,0.1-0.1,0.1-0.1V4.2l0.1-0.3l0.1-0.2v0.1c0.1,0.3,0.3,0.4,0.5,0.3c0,0,0.1,0,0.1-0.1c0,0,0-0.1,0-0.1
				c0,0-0.1-0.1-0.1-0.1c0,0-0.1,0-0.1,0l0,0l0,0l0,0l0,0c-0.1,0-0.1,0-0.2-0.1c0-0.1-0.1-0.2-0.1-0.2l0.1-0.1V3.3
				c0-0.1,0-0.2,0-0.3c0,0,0-0.1,0-0.1c0,0-0.1,0-0.1,0c-0.1,0-0.1,0.1-0.1,0.2c0,0,0,0.1,0,0.2c0,0.2-0.1,0.4-0.2,0.5
				c0-0.1-0.1-0.2-0.1-0.2c-0.1-0.3-0.3-0.4-0.4-0.3c0,0-0.1,0.1-0.1,0.1c0,0,0,0.1,0,0.1C19.6,3.6,19.6,3.7,19.7,3.7z"/>
			<path class="st0" d="M45.9,13.5L45.9,13.5L45.9,13.5c0.1-0.1,0.2,0,0.4,0.2l0.1,0.1l0.1,0.1V14v0.1c0,0.1,0,0.2,0,0.3
				c0,0,0.1,0,0.1,0.1c0,0,0.1,0,0.1,0c0.1,0,0.1-0.1,0.1-0.2v-0.1V14c0-0.1,0-0.2,0-0.3v-0.3l0.1,0.1c0.2,0.3,0.4,0.4,0.6,0.3
				c0,0,0.1-0.1,0.1-0.1c0-0.1,0-0.1,0-0.1c0,0-0.1-0.1-0.1-0.1c0,0-0.1,0-0.1,0l0,0v0.1l0,0c-0.1,0-0.1,0-0.3-0.1l-0.2-0.2v-0.2
				v-0.1c0-0.1,0-0.2,0-0.3c0,0-0.1-0.1-0.1-0.1c0,0-0.1,0-0.1,0c-0.1,0-0.1,0.1-0.1,0.2V13c0,0.2,0,0.4-0.1,0.6l-0.2-0.2
				c-0.2-0.3-0.4-0.3-0.5-0.2c0,0-0.1,0.1-0.1,0.1c0,0,0,0.1,0,0.1C45.8,13.5,45.9,13.5,45.9,13.5z"/>
			<path class="st0" d="M45,21.6L45,21.6L45,21.6c0-0.1,0.1-0.3,0.3-0.3h0.1h0.1l0.1,0.1l0.1,0.1c0.1,0.1,0.2,0.1,0.3,0.1
				c0,0,0.1,0,0.1-0.1c0,0,0-0.1,0-0.1c0-0.1-0.1-0.1-0.2-0.1h-0.1h-0.1L45.5,21l-0.3-0.1h0.2c0.4-0.1,0.6-0.3,0.5-0.5
				c0-0.1-0.1-0.1-0.1-0.1c-0.1-0.1-0.1-0.1-0.1-0.1c0,0-0.1,0.1-0.1,0.1c0,0,0,0.1,0,0.1l0,0l0,0l0,0l0,0c0,0.1-0.1,0.2-0.2,0.2
				L45,20.7l-0.2-0.1l-0.2-0.1c-0.1-0.1-0.2-0.1-0.3-0.1c0,0-0.1,0-0.1,0.1c0,0,0,0.1,0,0.1c0,0.1,0.1,0.1,0.2,0.1h0.2
				c0.2,0.1,0.4,0.2,0.6,0.3l-0.3,0.1c-0.3,0.1-0.5,0.3-0.4,0.5c0,0.1,0.1,0.1,0.1,0.1c0.1,0,0.1,0,0.2,0C45,21.7,45,21.6,45,21.6z"
				/>
			<path class="st0" d="M46.8,9.6L46.8,9.6L46.8,9.6c-0.1-0.1-0.1-0.3,0.1-0.4L47,9l0.1-0.1h0.1h0.1c0.1,0,0.2,0,0.3,0
				c0,0,0.1-0.1,0.1-0.1c0,0,0-0.1,0-0.1c-0.1,0-0.1,0-0.2,0h-0.1h-0.1H47h-0.3l0.1-0.1C47.1,8.4,47.2,8.1,47,8c0,0-0.1-0.1-0.1-0.1
				c-0.1,0-0.1,0-0.2,0c0,0-0.1,0.1-0.1,0.1c0,0,0,0.1,0,0.1l0,0l0,0l0,0l0,0c0.1,0.1,0,0.2-0.1,0.3l-0.1,0.3h-0.2h-0.2
				c-0.1,0-0.2,0-0.3,0c0,0-0.1,0.1-0.1,0.1c0,0,0,0.1,0,0.1C45.8,9,45.9,9,46,9h0.2c0.2,0,0.5,0,0.7,0l-0.3,0.2
				c-0.3,0.2-0.4,0.4-0.2,0.6c0,0,0.1,0.1,0.1,0.1c0.1,0,0.1,0,0.2,0C46.8,9.7,46.9,9.6,46.8,9.6z"/>
			<path class="st0" d="M15.9,19.2L15.9,19.2L15.9,19.2c0-0.1,0.1-0.1,0.3,0h0.1h0.1v0.1v0.1c0,0.1,0.1,0.1,0.1,0.1h0.1
				c0,0,0.1,0,0.1-0.1c0,0,0-0.1,0-0.1v0v0L16.4,19l-0.1-0.2h0.1c0.3,0.1,0.4,0.1,0.5-0.1c0,0,0-0.1,0-0.1c0-0.1,0-0.1,0-0.1
				c0,0-0.1,0-0.1,0c0,0-0.1,0-0.1,0.1l0,0v0.1l0,0c0,0.1-0.1,0.1-0.2,0.1l-0.2,0v-0.1v-0.1c0-0.1-0.1-0.1-0.1-0.2h-0.1c0,0,0,0,0,0
				c0,0,0,0.1,0,0.2l0.1,0.1c0.1,0.1,0.2,0.3,0.2,0.4l-0.2,0c-0.2-0.1-0.4-0.1-0.4,0.1c0,0,0,0.1,0,0.1c0,0,0,0.1,0.1,0.1
				C15.8,19.3,15.9,19.3,15.9,19.2z"/>
			<path class="st0" d="M10.8,18.1L10.8,18.1c0,0,0.1,0,0.2,0.1l0,0l0,0v0.1c0,0,0,0.1,0,0.1l0,0l0,0c0,0,0-0.1,0-0.1v-0.1
				c0-0.1,0-0.1,0-0.1V18v0.1c0.1,0.1,0.2,0.2,0.3,0.1v-0.1c0,0,0,0,0-0.1l0.2,0l0,0l0,0l0,0c0,0-0.1,0-0.1,0l-0.1-0.1v-0.1
				c0,0,0-0.1,0-0.1l0,0l0,0c0,0,0,0.1,0,0.1v0.1c0,0.1,0,0.2,0,0.3l-0.1-0.1c-0.1-0.1-0.2-0.1-0.3-0.1C10.9,18,10.9,18,10.8,18.1
				C10.9,18.1,10.9,18.1,10.8,18.1C10.9,18.1,10.8,18.1,10.8,18.1z"/>
			<path class="st0" d="M41.6,13.7c0.1,0.1,0.2,0.2,0.4,0.2c0.2,0,0.3-0.1,0.5-0.2c0.1-0.1,0.3-0.2,0.3-0.4c0.1-0.1,0.1-0.3,0-0.5
				l0,0c-0.1,0.2-0.3,0.5-0.5,0.6c-0.1,0.1-0.2,0.1-0.3,0.1c-0.1,0-0.2,0-0.3-0.1c0-0.1,0-0.1,0-0.2c0-0.1,0.1-0.1,0.1-0.2h0.1
				c0.1,0,0.1,0,0.2-0.1c0.1-0.1,0.2-0.2,0.1-0.3s-0.1-0.1-0.2,0c0,0-0.1,0.1-0.1,0.1l-0.1,0.1c-0.1,0-0.1,0-0.2,0
				c-0.1,0-0.1,0-0.1-0.1c-0.1-0.1,0-0.3,0.3-0.5c0.1-0.1,0.2-0.1,0.3-0.1l0.2-0.1c0,0,0-0.1,0-0.1c0,0,0-0.1,0-0.1
				c0-0.1-0.2-0.1-0.3,0c-0.1,0.1-0.2,0.1-0.4,0.2c-0.1,0.1-0.2,0.2-0.3,0.3c-0.1,0.1-0.1,0.3,0,0.4c0.1,0.1,0.2,0.2,0.4,0.2
				C41.5,13.4,41.5,13.6,41.6,13.7z"/>
			<path class="st0" d="M40.1,7.6c-0.1-0.1-0.3-0.2-0.4-0.2c-0.2,0-0.3,0.1-0.4,0.2c-0.1,0.1-0.2,0.3-0.3,0.4
				c-0.1,0.1-0.1,0.3,0,0.5l0,0c0.1-0.3,0.2-0.5,0.4-0.7c0.1-0.1,0.2-0.1,0.3-0.2c0.1-0.1,0.2-0.1,0.3,0c0,0.1,0,0.1,0,0.2
				c0,0.1,0,0.1-0.1,0.2h-0.1c-0.1,0-0.1,0.1-0.2,0.1c-0.1,0.1-0.2,0.2-0.1,0.3c0.1,0.1,0.2,0.1,0.2,0c0,0,0.1-0.1,0.1-0.1
				c0,0,0.1-0.1,0.1-0.1c0.1,0,0.1,0,0.2,0c0.1,0,0.1,0,0.2,0.1c0.1,0.1,0,0.3-0.2,0.5C40,8.9,39.9,8.9,39.8,9l-0.2,0.1
				c0,0,0,0.1,0,0.1c0,0,0,0.1,0.1,0.1c0,0.1,0.2,0,0.3-0.1c0.1-0.1,0.3-0.2,0.4-0.3c0.1-0.1,0.2-0.2,0.3-0.4c0-0.1,0-0.3-0.1-0.4
				c-0.1-0.1-0.3-0.2-0.4-0.1C40.2,8,40.2,7.8,40.1,7.6z"/>
			<path class="st0" d="M48.3,22.2c0.1,0.1,0.2,0.2,0.3,0.1c0.1,0,0.2-0.1,0.3-0.1c0.1-0.1,0.2-0.2,0.2-0.3c0.1-0.1,0.1-0.2,0-0.4
				l0,0c-0.1,0.2-0.2,0.4-0.3,0.5c-0.1,0.1-0.2,0.1-0.2,0.1C48.6,22.2,48.5,22.2,48.3,22.2c0.1-0.1,0.1-0.1,0.1-0.2
				c0-0.1,0-0.1,0.1-0.1h0.1l0.1-0.1c0.1-0.1,0.1-0.1,0.1-0.2c-0.1-0.1-0.1-0.1-0.2,0c0,0-0.1,0.1-0.1,0.1l-0.1,0.1c0,0-0.1,0-0.1,0
				c0,0-0.1,0-0.1,0c-0.1-0.1,0-0.2,0.2-0.4c0.1,0,0.1-0.1,0.2-0.1l0.2-0.1c0,0,0,0,0-0.1c0,0,0-0.1,0-0.1c0,0-0.1,0-0.3,0
				c-0.1,0-0.2,0.1-0.3,0.2c-0.1,0.1-0.2,0.2-0.2,0.3c-0.1,0.1-0.1,0.2,0,0.3c0.1,0.1,0.2,0.1,0.3,0.1C48.3,22,48.3,22.1,48.3,22.2z
				"/>
			<path class="st0" d="M34.6,1.5c0.1,0.1,0.2,0.1,0.3,0C35,1.4,35,1.3,35.1,1.2c0.1-0.1,0.1-0.2,0.1-0.3c0-0.1,0-0.2-0.1-0.3l0,0
				c0,0.2,0,0.3-0.1,0.5c0,0.1-0.1,0.1-0.2,0.2c-0.1,0-0.1,0-0.2,0c0,0-0.1-0.1-0.1-0.1c0,0,0-0.1,0-0.1h0L34.7,1
				c0.1-0.1,0.1-0.1,0-0.2c-0.1-0.1-0.1,0-0.1,0.1c0,0,0,0.1,0,0.1c0,0,0,0.1,0,0.1c0,0-0.1,0.1-0.1,0.1c0,0-0.1,0-0.1,0
				c-0.1-0.1-0.1-0.2,0-0.4c0-0.1,0.1-0.1,0.1-0.1l0.1-0.1c0,0,0,0,0-0.1l-0.1-0.1c0,0-0.1,0-0.2,0.1c-0.1,0.1-0.1,0.1-0.2,0.2
				c-0.1,0.1-0.1,0.2-0.1,0.3c0,0.1,0.1,0.2,0.1,0.2c0.1,0.1,0.2,0.1,0.3,0C34.5,1.3,34.5,1.4,34.6,1.5z"/>
			<path class="st0" d="M16.7,5.5c0-0.1-0.1-0.1-0.2-0.1c-0.1,0-0.2,0.1-0.2,0.1c-0.1,0.1-0.1,0.1-0.1,0.2c0,0.1,0,0.2,0,0.2l0,0
				c0-0.1,0.1-0.2,0.2-0.3c0,0,0.1-0.1,0.1-0.1C16.5,5.6,16.6,5.6,16.7,5.5c0,0.1,0,0.1,0,0.1c0,0,0,0.1,0,0.1l0,0h-0.1
				c-0.1,0.1-0.1,0.1,0,0.1c0.1,0.1,0.1,0,0.1,0V5.8V5.8c0,0,0.1,0,0.1,0c0,0,0,0,0.1,0c0.1,0.1,0,0.1-0.1,0.3l-0.1,0.1l-0.1,0.1
				c0,0,0,0,0,0.1c0,0,0,0,0,0.1c0,0,0.1,0,0.2,0l0.2-0.1c0.1,0,0.1-0.1,0.1-0.2c0-0.1,0-0.1,0-0.2c0-0.1-0.1-0.1-0.2-0.1
				C16.8,5.7,16.7,5.6,16.7,5.5z"/>
			<path class="st0" d="M9.1,20.2c0.1,0.1,0.2,0.1,0.3,0.1c0.1,0,0.2-0.1,0.3-0.1c0.1-0.1,0.2-0.2,0.2-0.3c0.1-0.1,0.1-0.2,0-0.3
				l0,0c-0.1,0.1-0.2,0.3-0.4,0.3c-0.1,0-0.1,0.1-0.2,0.1c-0.1,0-0.1,0-0.2,0c0,0,0-0.1,0-0.1c0,0,0-0.1,0.1-0.1h0.1l0.1,0
				c0.1-0.1,0.1-0.1,0.1-0.2c-0.1-0.1-0.1,0-0.2,0l-0.1,0.1l-0.1,0.1c0,0-0.1,0-0.1,0c0,0-0.1,0-0.1,0c-0.1-0.1,0-0.2,0.2-0.3
				c0.1,0,0.1-0.1,0.2-0.1l0.1-0.1c0,0,0,0,0-0.1c0,0,0-0.1,0-0.1c0,0-0.1,0-0.2,0L9,19.2c-0.1,0.1-0.2,0.1-0.2,0.2
				c-0.1,0.1-0.1,0.2,0,0.3c0.1,0.1,0.2,0.1,0.3,0.1C9,20,9,20.1,9.1,20.2z"/>
			<path class="st0" d="M50.3,20.2c0.1,0.2,0.2,0.4,0.5,0.5c0.2,0.1,0.5,0.1,0.7,0c0.3-0.1,0.5-0.2,0.7-0.4c0.2-0.1,0.3-0.4,0.3-0.7
				l0,0c-0.3,0.3-0.6,0.5-1,0.6c-0.2,0-0.4,0-0.5,0c-0.2,0-0.4-0.1-0.4-0.3c0-0.1,0-0.2,0.1-0.3c0.1-0.1,0.1-0.1,0.2-0.2H51
				c0.1,0,0.2,0,0.3,0c0.2-0.1,0.3-0.2,0.3-0.3c0-0.2-0.2-0.2-0.4-0.2c-0.1,0-0.2,0.1-0.2,0.1c-0.1,0-0.1,0.1-0.2,0.1
				c-0.1,0-0.2,0-0.3,0c-0.1,0-0.1-0.1-0.2-0.2c-0.1-0.2,0.1-0.4,0.6-0.6c0.2,0,0.3,0,0.5,0c0.1,0,0.2,0,0.4,0c0,0,0.1-0.1,0.1-0.2
				c0-0.1,0-0.1,0-0.2c0-0.1-0.2-0.1-0.5-0.1c-0.2,0-0.4,0-0.6,0.1c-0.2,0.1-0.4,0.2-0.6,0.3c-0.2,0.2-0.2,0.4-0.2,0.6
				c0.1,0.2,0.2,0.4,0.5,0.4C50.4,19.6,50.3,19.9,50.3,20.2z"/>
			<path class="st0" d="M50.9,25.7c0,0.2,0.2,0.4,0.4,0.4c0.2,0.1,0.4,0.1,0.6,0c0.2-0.1,0.4-0.2,0.6-0.3c0.2-0.1,0.3-0.4,0.2-0.6
				l0,0c-0.2,0.3-0.5,0.4-0.9,0.5c-0.2,0-0.3,0-0.5,0c-0.2,0-0.3-0.1-0.3-0.2c0-0.1,0-0.2,0-0.2c0-0.1,0.1-0.1,0.2-0.1h0.2
				c0.1,0,0.2,0,0.2,0c0.2-0.1,0.3-0.2,0.3-0.3s-0.1-0.2-0.3-0.1c-0.1,0-0.1,0.1-0.2,0.1c-0.1,0-0.1,0.1-0.2,0.1c-0.1,0-0.1,0-0.2,0
				C51,25,51,24.9,51,24.8c-0.1-0.2,0.1-0.4,0.5-0.5c0.1,0,0.3,0,0.4,0h0.3c0,0,0.1-0.1,0.1-0.1c0-0.1,0-0.1,0-0.2
				c0-0.1-0.1-0.1-0.4-0.1c-0.2,0-0.3,0-0.5,0.1c-0.2,0-0.4,0.1-0.5,0.3c-0.1,0.1-0.2,0.4-0.1,0.5c0,0.2,0.2,0.3,0.4,0.4
				C51,25.3,50.9,25.5,50.9,25.7z"/>
			<path class="st0" d="M22.6,4.9c0,0.1,0.1,0.2,0.2,0.2c0.1,0,0.2,0,0.3,0c0.1,0,0.2-0.1,0.3-0.1c0.1,0,0.1-0.1,0.2-0.2l0,0
				C23.4,4.9,23.2,5,23.1,5c-0.1,0-0.1,0-0.2,0c-0.1,0-0.1,0-0.1-0.1c0,0,0-0.1,0-0.1c0,0,0.1-0.1,0.1-0.1H23c0.1,0,0.1,0,0.1-0.1
				c0-0.1,0-0.1-0.1-0.1h-0.1h-0.1c0,0-0.1,0-0.1,0c0,0,0,0,0-0.1c0-0.1,0.1-0.2,0.3-0.2h0.2h0.1c0,0,0,0,0-0.1c0,0,0-0.1,0-0.1
				c0,0-0.1-0.1-0.2-0.1h-0.2c-0.1,0-0.2,0-0.3,0.1c-0.1,0.1-0.1,0.1-0.1,0.2c0,0.1,0.1,0.2,0.2,0.2C22.6,4.7,22.5,4.8,22.6,4.9z"/>
			<path class="st0" d="M14.7,11.7c0.2,0,0.4-0.1,0.6-0.2c0.1-0.2,0.2-0.4,0.2-0.6c0-0.2,0-0.5-0.1-0.7c-0.1-0.3-0.3-0.4-0.5-0.4
				l0,0c0.2,0.3,0.2,0.7,0.2,1c0,0.2-0.1,0.3-0.1,0.4c-0.1,0.2-0.2,0.3-0.3,0.3c-0.1,0-0.2-0.1-0.2-0.1c-0.1-0.1-0.1-0.2-0.1-0.3
				l0.1-0.1c0-0.1,0.1-0.2,0.1-0.2c0-0.2-0.1-0.3-0.2-0.3c-0.1,0-0.2,0.1-0.2,0.2c0,0.1,0,0.2,0,0.2c0,0.1,0,0.1,0,0.2
				c0,0.1,0,0.1-0.1,0.2c-0.1,0-0.1,0.1-0.2,0.1c-0.2,0-0.3-0.2-0.3-0.7c0-0.1,0.1-0.3,0.1-0.4c0-0.1,0.1-0.2,0.1-0.3
				c0,0,0-0.1-0.1-0.1c-0.1,0-0.1,0-0.2,0c-0.1,0-0.2,0.1-0.3,0.4c-0.1,0.2-0.1,0.3-0.1,0.5c0,0.2,0,0.4,0.1,0.6
				c0.1,0.2,0.3,0.3,0.5,0.3c0.2,0,0.4-0.1,0.5-0.3C14.2,11.5,14.5,11.7,14.7,11.7z"/>
			<path class="st0" d="M45.4,8c0.2,0.1,0.4,0.1,0.6,0c0.2-0.1,0.3-0.3,0.4-0.5c0.1-0.2,0.1-0.4,0.1-0.7c0-0.2-0.1-0.4-0.3-0.5l0,0
				c0.1,0.3,0,0.7-0.2,1C46,7.4,46,7.6,45.8,7.7c-0.1,0.1-0.3,0.2-0.4,0.1c-0.1,0-0.1-0.1-0.1-0.2c0-0.1,0-0.2,0-0.3l0.1-0.1
				c0-0.1,0.1-0.1,0.1-0.2c0.1-0.2,0.1-0.3-0.1-0.4c-0.1-0.1-0.2,0-0.3,0.2c0,0.1,0,0.2,0,0.2c0,0.1,0,0.1,0,0.2
				c0,0.1-0.1,0.1-0.2,0.2c-0.1,0-0.1,0-0.2,0c-0.2-0.1-0.2-0.3,0-0.8C44.9,6.5,45,6.4,45,6.3c0.1-0.1,0.1-0.2,0.2-0.3
				c0,0,0-0.1-0.1-0.2c0,0-0.1-0.1-0.1-0.1c-0.1,0-0.2,0-0.4,0.3c-0.1,0.1-0.2,0.3-0.3,0.5c-0.1,0.2-0.1,0.4-0.1,0.6
				c0,0.2,0.1,0.4,0.3,0.5c0.2,0.1,0.4,0.1,0.5-0.1C45.2,7.7,45.2,7.9,45.4,8z"/>
			<path class="st0" d="M48.8,30.5c0.1,0,0.3-0.1,0.3-0.2c0.1-0.1,0.1-0.3,0.1-0.4c0-0.1-0.1-0.3-0.1-0.4c-0.1-0.1-0.2-0.2-0.3-0.2
				l0,0c0.1,0.2,0.2,0.4,0.2,0.6c0,0.1,0,0.2,0,0.3c0,0.1-0.1,0.2-0.2,0.2c-0.1,0-0.1,0-0.1-0.1c0,0-0.1-0.1-0.1-0.1v-0.1
				c0-0.1,0-0.1,0-0.2c0-0.1-0.1-0.2-0.2-0.2c-0.1,0-0.1,0.1-0.1,0.2c0,0,0,0.1,0,0.1c0,0,0,0.1,0,0.1c0,0,0,0.1,0,0.1
				c0,0-0.1,0.1-0.1,0.1c-0.1,0-0.2-0.1-0.2-0.4c0-0.1,0-0.2,0-0.3c0-0.1,0-0.1,0-0.2c0,0,0,0-0.1-0.1h-0.1c-0.1,0-0.1,0.1-0.1,0.3
				c0,0.1,0,0.2,0,0.3c0,0.1,0,0.3,0.1,0.4c0.1,0.1,0.2,0.2,0.3,0.2c0.1,0,0.2-0.1,0.3-0.2C48.4,30.5,48.6,30.6,48.8,30.5z"/>
			<path class="st0" d="M17.3,20.7c0.1,0,0.3,0,0.4,0c0.1-0.1,0.2-0.2,0.2-0.3c0-0.1,0-0.3,0-0.4c0-0.2-0.1-0.3-0.2-0.3l0,0
				c0.1,0.2,0.1,0.4,0,0.6c0,0.1-0.1,0.2-0.1,0.2c-0.1,0.1-0.2,0.1-0.2,0.1c0,0-0.1-0.1-0.1-0.1c0,0,0-0.1,0-0.1l0-0.1
				c0,0,0.1-0.1,0.1-0.1c0-0.1,0-0.2,0-0.2c-0.1,0-0.1,0-0.1,0.1c0,0,0,0.1,0,0.1c0,0,0,0.1,0,0.1c0,0,0,0.1-0.1,0.1
				c0,0-0.1,0-0.1,0c-0.1,0-0.1-0.2,0-0.4c0-0.1,0.1-0.1,0.1-0.2l0.1-0.2c0,0,0,0,0-0.1l-0.1-0.1c0,0-0.1,0-0.2,0.2
				c-0.1,0.1-0.1,0.2-0.1,0.3c0,0.1,0,0.2,0,0.3c0,0.1,0.1,0.2,0.2,0.3c0.1,0,0.2,0,0.3-0.1C17.2,20.5,17.3,20.6,17.3,20.7z"/>
			<path class="st0" d="M12.2,20.3c0,0.1,0,0.2,0.1,0.3c0.1,0.1,0.2,0.1,0.3,0.1c0.1,0,0.2,0,0.3,0c0.1,0,0.2-0.1,0.2-0.2l0,0
				c-0.2,0.1-0.3,0.1-0.5,0c-0.1,0-0.1,0-0.2-0.1c-0.1-0.1-0.1-0.1-0.1-0.2c0,0,0-0.1,0.1-0.1c0,0,0.1,0,0.1,0h0.1h0.1
				c0.1,0,0.2,0,0.2-0.1c0,0,0-0.1-0.1-0.1h-0.2c0,0-0.1,0-0.1-0.1c0,0,0-0.1,0-0.1c0-0.1,0.1-0.1,0.4-0.1c0.1,0,0.1,0,0.2,0.1
				l0.1,0.1c0,0,0,0,0.1,0c0,0,0-0.1,0-0.1c0,0,0-0.1-0.2-0.1l-0.3-0.1c-0.1,0-0.2,0-0.3,0c-0.1,0-0.2,0.1-0.2,0.2
				c0,0.1,0,0.2,0.1,0.3C12.3,20.1,12.2,20.2,12.2,20.3z"/>
			<path class="st0" d="M32.5,8L32,8.2l-0.3,0.1l0.1-0.1L31.9,8L32,7.8l0.1-0.1c0-0.1,0-0.2,0-0.2l0,0H32l0,0c0,0,0,0,0,0.1
				s0,0.1,0,0.1c0,0,0,0,0,0.1c0,0,0,0.1,0,0.1v0.1l-0.2,0.3c-0.1,0.1-0.1,0.3-0.2,0.4c-0.1,0.1-0.1,0.3,0,0.4h0.1c0,0,0.1,0,0.1,0
				c0,0,0,0,0-0.1c0,0,0-0.1,0-0.1c-0.1,0-0.1-0.1-0.1-0.2c0-0.1,0-0.2,0.1-0.2c0.3-0.2,0.7-0.3,1-0.4L32.5,8z"/>
			<path class="st0" d="M38.9,11.4L38.7,11l-0.2-0.3l0.1,0.1l0.1,0.1l0.2,0.1h0.2c0.1,0,0.2,0,0.2,0l0,0l0,0l0,0l0,0h-0.1h-0.1H39
				h-0.1l-0.4-0.3c-0.1-0.1-0.3-0.1-0.4-0.1c-0.1,0-0.2,0-0.3,0.1c0,0,0,0,0,0.1c0,0,0,0.1,0,0.1c0,0,0.1,0,0.1,0c0,0,0.1,0,0.1-0.1
				c0-0.1,0.1-0.1,0.2-0.2c0.1-0.1,0.2-0.1,0.2,0c0.2,0.3,0.4,0.7,0.5,1L38.9,11.4z"/>
			<path class="st0" d="M30.9,4.2l-0.3,0.1l-0.2,0.1l0.1-0.1l0.1-0.1V4.2V4.1c0-0.1,0-0.1,0-0.2l0,0c0,0,0,0,0,0V4l0,0
				c0,0,0,0,0,0.1v0.1l-0.1,0.2c-0.1,0.1-0.1,0.2-0.1,0.3c0,0.1,0,0.2,0,0.2l0,0c0,0,0,0,0-0.1c0,0,0,0,0-0.1c0,0-0.1-0.1-0.1-0.1
				c0,0,0-0.1,0-0.2C30.4,4.4,30.6,4.3,30.9,4.2L30.9,4.2z"/>
			<path class="st0" d="M19,14l-0.4,0.4l-0.3,0.3v-0.2v-0.2c0-0.1,0-0.2,0-0.3c0-0.1,0-0.1,0-0.2c0-0.2,0-0.2-0.1-0.3l0,0l0,0l0,0
				l0,0c0,0,0,0,0,0.1l0,0.1V14c0,0,0,0.1,0,0.1c0,0,0,0.1,0,0.1v0.5c0,0.2,0,0.4,0,0.6c0,0.2,0.1,0.3,0.3,0.3h0.1
				c0,0,0.1,0,0.1-0.1c0,0,0-0.1,0-0.1c0,0-0.1-0.1-0.1-0.1c-0.1,0-0.2-0.1-0.3-0.1c-0.1-0.1-0.1-0.2-0.1-0.3c0.3-0.4,0.6-0.7,0.9-1
				L19,14z"/>
			<path class="st0" d="M22.9,3.1c0,0.1,0,0.2,0,0.3s0,0.2,0,0.2l-0.1-0.1l-0.1-0.1l-0.1-0.1l-0.1-0.1c-0.1,0-0.1,0-0.2,0l0,0l0,0
				l0,0l0,0h0.2h0.1h0l0.2,0.2c0.1,0.1,0.2,0.1,0.3,0.2c0.1,0,0.2,0,0.2,0l0,0l0,0h-0.1l-0.1,0.1c-0.1,0-0.1,0-0.1-0.1
				C23.1,3.5,23,3.2,23,3L22.9,3.1z"/>
			<path class="st0" d="M17.4,8.2l-0.2,0.5C17.1,8.8,17.1,8.9,17,9V8.9V8.7c0-0.1,0-0.1,0-0.2c0-0.1,0-0.1,0-0.2
				c-0.1-0.1-0.1-0.2-0.2-0.2l0,0l0,0l0,0l0,0c0,0,0,0,0,0.1l0.1,0.1l0,0L17,8.4v0.1l0.1,0.4c0,0.2,0.1,0.3,0.2,0.4
				c0.1,0.1,0.2,0.2,0.3,0.2h0c0,0,0.1,0,0.1-0.1c0,0,0-0.1,0-0.1c0,0-0.1,0-0.1,0c-0.1,0-0.2,0-0.2,0c-0.1,0-0.1-0.1-0.1-0.2
				c0.1-0.4,0.3-0.7,0.5-1.1L17.4,8.2z"/>
			<path class="st0" d="M15.5,19.6l-0.3,0.5c-0.1,0.1-0.2,0.2-0.2,0.3c0-0.1,0-0.1,0-0.2s0-0.1,0-0.2s0-0.1,0-0.2c0-0.1,0-0.1,0-0.2
				c0-0.1-0.1-0.2-0.2-0.2l0,0l0,0l0,0l0,0c0,0,0,0,0,0.1l0.1,0.1v0.1v0.1c0,0,0,0.1,0,0.1v0.4c0,0.2,0,0.3,0.1,0.5
				c0,0.1,0.2,0.2,0.3,0.3h0.1c0,0,0.1,0,0.1-0.1c0,0,0-0.1,0-0.1c0,0-0.1,0-0.1,0c-0.1,0-0.2,0-0.2-0.1c-0.1,0-0.1-0.1-0.1-0.2
				c0.2-0.4,0.4-0.7,0.7-1L15.5,19.6z"/>
			<path class="st0" d="M14.9,6.2c0.1,0.4,0.2,0.7,0.3,0.9c0.1,0.3,0.1,0.5,0.1,0.7l0.1-0.3l0.1-0.3c0.1-0.1,0.1-0.3,0.2-0.4
				c0-0.1,0.1-0.2,0.2-0.3c0.1-0.2,0.3-0.3,0.4-0.3h0.1l0,0.1c0,0,0,0.1,0,0.1c0,0,0,0.1,0,0.1c0,0,0,0.1-0.1,0.1l-0.1,0.1L16,6.9
				L15.9,7l-0.1,0.2l-0.3,0.8c-0.1,0.3-0.3,0.5-0.5,0.8c-0.2,0.2-0.4,0.3-0.7,0.3c-0.1,0-0.1,0-0.1-0.1c-0.1,0-0.1-0.1-0.1-0.1
				c0-0.1,0-0.1,0.1-0.2c0.1,0,0.1,0,0.2,0c0.1,0,0.3,0,0.4,0c0.2,0,0.2-0.1,0.3-0.3c-0.1-0.7-0.3-1.4-0.6-2.1L14.9,6.2z"/>
			<path class="st0" d="M43,4.5h-0.5h-0.3l0.1-0.1l0.1-0.1l0.2-0.1l0.1-0.1c0.1-0.1,0.1-0.2,0.1-0.2l0,0h-0.1c0,0,0,0,0,0.1L42.5,4
				v0.1v0.1l0,0.1l-0.3,0.3c-0.1,0.1-0.2,0.2-0.3,0.3c-0.1,0.1-0.1,0.2,0,0.3v0.1c0,0,0,0,0.1,0c0,0,0.1,0,0.1-0.1c0,0,0-0.1,0-0.1
				C42,5,42,4.9,41.9,4.9c0-0.1,0-0.1,0.1-0.2c0.3-0.1,0.7-0.1,1-0.1L43,4.5z"/>
			<path class="st0" d="M49.3,18.6c-0.3-0.3-0.6-0.5-0.8-0.7c-0.2-0.2-0.4-0.4-0.5-0.5l0.1,0.3L48,18c0,0.2,0,0.3,0.1,0.5
				c0,0.1,0,0.2,0,0.4c0,0.3-0.1,0.5-0.2,0.5h-0.1h-0.1l-0.1-0.1l0-0.1c0,0,0-0.1,0-0.2l0.1-0.2l0-0.1c0-0.1,0-0.1,0-0.2
				c0-0.1,0-0.1,0-0.2l-0.1-0.9c0-0.3,0-0.7,0-1c0-0.3,0.2-0.5,0.4-0.7c0.1,0,0.1,0,0.2,0c0.1,0,0.1,0,0.2,0.1c0,0.1,0,0.1,0,0.2
				c0,0.1-0.1,0.1-0.2,0.1c-0.2,0.1-0.3,0.1-0.4,0.2c-0.1,0.1-0.2,0.3,0,0.5c0.6,0.6,1.2,1.2,1.8,1.6L49.3,18.6z"/>
			<path class="st0" d="M50.2,17.7c-0.3,0-0.6-0.2-0.8-0.4c-0.1-0.1-0.1-0.1-0.2-0.1c0,0-0.1,0-0.1,0c0,0,0,0.1,0,0.1
				c0,0.2,0.2,0.3,0.5,0.4C49.7,17.7,49.9,17.8,50.2,17.7c0.3,0.1,0.5,0.1,0.8,0c0.2-0.1,0.4-0.3,0.4-0.6c0-0.2,0-0.4-0.2-0.6
				c-0.1-0.2-0.3-0.3-0.5-0.3c-0.2,0-0.5,0-0.6,0.2c-0.2,0.1-0.3,0.3-0.3,0.6C49.7,17.3,49.9,17.6,50.2,17.7z M50.4,17.5
				c-0.1,0-0.3-0.1-0.4-0.1c-0.1-0.1-0.2-0.2-0.2-0.4c0-0.2,0.2-0.3,0.3-0.4c0.2-0.1,0.4-0.1,0.5-0.1c0.1,0,0.3,0,0.4,0.1
				c0.1,0.1,0.2,0.2,0.2,0.3c0,0.2-0.2,0.4-0.3,0.4C50.8,17.5,50.6,17.6,50.4,17.5z"/>
			<path class="st0" d="M48.9,32.5c0.1-0.1,0.2-0.3,0.4-0.3l0.1,0c0,0,0,0,0-0.1c0,0,0,0,0-0.1c-0.1,0-0.2,0-0.3,0.1
				C49.1,32.2,49,32.3,48.9,32.5c-0.1,0.1-0.1,0.2-0.1,0.4c0,0.1,0.1,0.3,0.2,0.4c0.1,0.1,0.2,0.1,0.3,0.1c0.1,0,0.2-0.1,0.3-0.2
				c0.1-0.1,0.1-0.2,0.1-0.3c0-0.1-0.1-0.2-0.2-0.3C49.3,32.4,49.1,32.4,48.9,32.5z M48.9,32.6c0-0.1,0.1-0.1,0.2-0.1
				c0.1,0,0.1,0,0.2,0c0.1,0.1,0.1,0.2,0.1,0.3c0,0.1,0,0.2-0.1,0.3c0,0.1-0.1,0.1-0.2,0.2c-0.1,0-0.1,0-0.2,0
				c-0.1-0.1-0.1-0.2-0.1-0.3C48.9,32.8,48.9,32.7,48.9,32.6L48.9,32.6z"/>
			<path class="st0" d="M45.9,31c-0.3-0.1-0.6-0.3-0.7-0.6c-0.1-0.1-0.1-0.2-0.2-0.2c0,0-0.1,0-0.1,0c0,0-0.1,0.1-0.1,0.1
				c0,0.1,0.1,0.3,0.4,0.5c0.2,0.1,0.4,0.2,0.7,0.3c0.3,0.1,0.5,0.1,0.8,0c0.3-0.1,0.5-0.2,0.6-0.5c0.1-0.2,0.1-0.4,0-0.6
				c-0.1-0.2-0.3-0.3-0.5-0.4c-0.2-0.1-0.4-0.1-0.7,0c-0.2,0.1-0.4,0.3-0.4,0.5C45.5,30.5,45.6,30.8,45.9,31z M46.1,30.9
				c-0.1,0-0.2-0.1-0.3-0.2c-0.1-0.1-0.1-0.2-0.1-0.4c0.1-0.2,0.2-0.3,0.4-0.3c0.2,0,0.4,0,0.5,0c0.1,0,0.3,0.1,0.3,0.2
				c0.1,0.1,0.1,0.2,0.1,0.4c-0.1,0.2-0.2,0.3-0.4,0.3C46.5,30.9,46.3,30.9,46.1,30.9L46.1,30.9z"/>
			<path class="st0" d="M50,26.5c0.1-0.3,0.3-0.6,0.5-0.8c0.1-0.1,0.1-0.1,0.2-0.2c0,0,0-0.1,0-0.1c0,0-0.1-0.1-0.1-0.1
				c-0.2,0-0.3,0.1-0.4,0.4C50.1,26,50,26.2,50,26.5c-0.2,0.2-0.2,0.5-0.1,0.8c0.1,0.3,0.3,0.5,0.5,0.5c0.2,0.1,0.4,0,0.6-0.1
				c0.2-0.1,0.3-0.3,0.3-0.5c0.1-0.2,0-0.4-0.1-0.6c-0.1-0.2-0.3-0.4-0.5-0.4C50.5,26.1,50.2,26.2,50,26.5z M50.2,26.7
				c0-0.1,0.1-0.3,0.2-0.4c0.1-0.1,0.2-0.1,0.4-0.1c0.2,0.1,0.3,0.2,0.3,0.4c0,0.2,0,0.4,0,0.5c0,0.1-0.1,0.3-0.2,0.4
				c-0.1,0.1-0.2,0.2-0.3,0.1c-0.2-0.1-0.3-0.2-0.3-0.4C50.1,27.1,50.1,26.9,50.2,26.7z"/>
			<path class="st0" d="M43.5,7.4c0.1-0.1,0.1-0.2,0.1-0.3c0-0.1-0.1-0.2-0.1-0.2c-0.1-0.1-0.1-0.1-0.2-0.1c-0.1,0-0.2,0.1-0.2,0.1
				c-0.1,0.1-0.1,0.2,0,0.3c0,0.1,0.1,0.2,0.2,0.3c0.1,0.1,0.2,0.1,0.2,0.2c0.1,0.1,0.2,0.1,0.3,0c0,0,0,0,0-0.1c0,0,0,0,0-0.1h-0.1
				h-0.2c-0.1,0-0.1-0.1-0.2-0.1C43.3,7.5,43.4,7.5,43.5,7.4z M43,7.2c0-0.1,0-0.2,0-0.2c0,0,0.1,0,0.2,0c0.1,0,0.1,0,0.2,0.1
				c0.1,0,0.1,0.1,0.1,0.2c0,0.1,0,0.1,0,0.2c0,0-0.1,0.1-0.2,0.1c-0.1,0-0.1,0-0.2-0.1C43.1,7.3,43,7.2,43,7.2L43,7.2z"/>
			<path class="st0" d="M41.8,11.4c0.1-0.1,0.1-0.2,0.1-0.3c0-0.1-0.1-0.2-0.2-0.3c-0.1-0.1-0.2-0.1-0.3-0.1c-0.1,0-0.2,0.1-0.3,0.1
				c-0.1,0.1-0.1,0.3-0.1,0.4c0,0.1,0.1,0.2,0.2,0.3c0.1,0.1,0.2,0.1,0.3,0.2c0.2,0.1,0.3,0.1,0.3,0c0,0,0,0,0-0.1c0,0,0,0,0-0.1
				h-0.1h-0.2c-0.1,0-0.2-0.1-0.3-0.1C41.6,11.5,41.7,11.5,41.8,11.4z M41.3,11.1c-0.1-0.1-0.1-0.2,0-0.3c0-0.1,0.1-0.1,0.2-0.1
				c0.1,0,0.1,0.1,0.2,0.1c0.1,0.1,0.1,0.1,0.2,0.2c0.1,0.1,0.1,0.2,0,0.3c0,0.1-0.1,0.1-0.2,0.1c-0.1,0-0.1,0-0.2-0.1
				C41.3,11.3,41.3,11.2,41.3,11.1L41.3,11.1z"/>
			<path class="st0" d="M30.2,0.1c-0.2,0-0.3,0.1-0.3,0.3c-0.1,0.1-0.1,0.3,0,0.4c0,0.1,0.1,0.2,0.3,0.3c0.1,0.1,0.3,0.1,0.4,0
				c0.2,0,0.3-0.2,0.3-0.4c0-0.2,0-0.4,0-0.5c0-0.2-0.1-0.3-0.2-0.4c-0.1-0.2-0.3-0.3-0.4-0.2c0,0-0.1,0-0.1,0.1c0,0,0,0.1,0,0.1
				c0,0,0,0,0.1,0.1c0.1,0,0.1,0.1,0.2,0.2c0.1,0.1,0.1,0.2,0.2,0.3C30.6,0.1,30.4,0.1,30.2,0.1z M30.7,0.9c0,0.1-0.1,0.2-0.2,0.3
				c-0.1,0-0.2,0-0.2-0.1c-0.1-0.1-0.1-0.2-0.1-0.2c0-0.1,0-0.2,0-0.4c0-0.1,0.1-0.2,0.2-0.3c0.1,0,0.1,0,0.2,0.1
				c0.1,0.1,0.1,0.1,0.1,0.2C30.7,0.6,30.7,0.7,30.7,0.9L30.7,0.9z"/>
			<path class="st0" d="M23.5,1.3c-0.2,0-0.3,0.1-0.3,0.3c-0.1,0.1-0.1,0.3,0,0.4c0,0.1,0.1,0.2,0.3,0.3c0.1,0.1,0.3,0.1,0.4,0
				c0.2,0,0.3-0.2,0.4-0.4c0-0.2,0-0.4,0-0.5C24.1,1.3,24.1,1.1,24,1c-0.1-0.2-0.2-0.3-0.3-0.3c0,0-0.1,0-0.1,0.1c0,0,0,0.1,0,0.1
				c0,0,0,0,0.1,0.1c0.2,0.1,0.3,0.3,0.4,0.5C23.9,1.3,23.7,1.2,23.5,1.3z M24,2c0,0.1-0.1,0.2-0.2,0.3c-0.1,0-0.2,0-0.2-0.1
				c-0.1-0.1-0.1-0.2-0.1-0.3c0-0.1,0-0.2,0-0.4c0-0.1,0.1-0.2,0.2-0.3c0.1,0,0.2,0,0.3,0C23.9,1.5,24,1.6,24,1.6
				C24,1.8,24,1.9,24,2L24,2z"/>
			<path class="st0" d="M20.9,3c-0.1,0.1-0.1,0.2-0.1,0.3c0,0.1,0.1,0.2,0.2,0.3c0.1,0.1,0.2,0.1,0.3,0.1c0.1,0,0.2,0,0.3-0.1
				c0.1-0.1,0.2-0.3,0.1-0.4c0-0.1-0.1-0.3-0.2-0.4c-0.1-0.1-0.2-0.2-0.3-0.3c-0.2-0.1-0.3-0.1-0.3-0.1c0,0,0,0,0,0.1c0,0,0,0,0,0.1
				h0.1c0.2,0,0.4,0.1,0.5,0.2C21.2,2.8,21,2.9,20.9,3z M21.5,3.4c0,0.1,0,0.2-0.1,0.3c-0.1,0-0.1,0-0.2,0c-0.1,0-0.1-0.1-0.2-0.1
				c-0.1-0.1-0.1-0.2-0.2-0.3c-0.1-0.1-0.1-0.2,0-0.3c0.1-0.1,0.2-0.1,0.3,0c0.1,0,0.1,0.1,0.2,0.1C21.4,3.2,21.5,3.3,21.5,3.4
				L21.5,3.4z"/>
			<path class="st0" d="M16.6,7.7c0.1,0.1,0.2,0.1,0.4,0c0.1-0.1,0.2-0.2,0.2-0.3c0-0.1,0-0.2,0-0.3c0-0.1-0.1-0.2-0.2-0.2
				c-0.1-0.1-0.3,0-0.4,0.1c-0.1,0.1-0.2,0.2-0.2,0.3c0,0.1-0.1,0.2-0.1,0.4c0,0.2,0,0.3,0.1,0.3h0.1c0,0,0,0,0,0c0,0,0-0.1,0-0.1
				c-0.1-0.2-0.1-0.3,0-0.5C16.4,7.5,16.5,7.6,16.6,7.7z M16.7,7c0.1-0.1,0.2-0.1,0.3-0.1c0.1,0,0.1,0.1,0.1,0.2c0,0.1,0,0.1,0,0.2
				c0,0.1-0.1,0.2-0.2,0.2c-0.1,0.1-0.2,0.1-0.3,0.1c-0.1,0-0.1-0.1-0.1-0.2c0-0.1,0-0.1,0-0.2C16.5,7.1,16.6,7.1,16.7,7z"/>
			<path class="st0" d="M44.1,22.2c-0.1,0.1-0.2,0.2-0.2,0.4c0,0.2,0,0.3,0.2,0.4c0.1,0.1,0.2,0.2,0.4,0.2c0.1,0,0.3,0,0.4-0.1
				c0.2-0.1,0.2-0.3,0.2-0.5c0-0.2-0.1-0.4-0.2-0.5c-0.1-0.1-0.2-0.3-0.3-0.4c-0.2-0.2-0.3-0.2-0.4-0.1c0,0,0,0,0,0.1
				c0,0,0,0.1,0,0.1c0,0,0.1,0.1,0.2,0.1c0.2,0,0.4,0.2,0.6,0.4C44.5,22.1,44.3,22.1,44.1,22.2z M44.8,22.8c0,0.1,0,0.3-0.1,0.4
				c-0.1,0.1-0.2,0.1-0.3,0c-0.1,0-0.2-0.1-0.2-0.2c-0.1-0.1-0.1-0.2-0.2-0.4c0-0.1,0-0.3,0.1-0.4c0.1,0,0.2,0,0.3,0
				c0.1,0,0.2,0.1,0.2,0.2C44.7,22.5,44.8,22.7,44.8,22.8z"/>
			<path class="st0" d="M46.1,10.4c-0.1,0.1-0.2,0.2-0.2,0.4c0,0.2,0,0.3,0.2,0.4c0.1,0.1,0.2,0.2,0.4,0.2c0.1,0,0.3,0,0.4-0.1
				c0.2-0.1,0.2-0.3,0.2-0.5c0-0.2-0.1-0.4-0.2-0.5c-0.1-0.1-0.2-0.3-0.3-0.4c-0.2-0.2-0.3-0.2-0.4-0.1c0,0,0,0,0,0.1
				c0,0,0,0.1,0,0.1c0,0,0.1,0.1,0.2,0.1c0.2,0,0.4,0.2,0.6,0.4C46.5,10.3,46.3,10.3,46.1,10.4z M46.8,10.9c0,0.1,0,0.3-0.1,0.4
				c-0.1,0.1-0.2,0.1-0.3,0c-0.1,0-0.2-0.1-0.2-0.2c-0.1-0.1-0.1-0.2-0.2-0.4c0-0.1,0-0.3,0.1-0.4c0.1,0,0.2,0,0.3,0
				c0.1,0,0.2,0.1,0.2,0.2C46.7,10.7,46.8,10.8,46.8,10.9z"/>
			<path class="st0" d="M31.5,5.4c-0.1-0.2-0.4-0.3-0.6-0.2c-0.2,0-0.4,0.1-0.6,0.3c-0.1,0.1-0.2,0.3-0.2,0.5c0,0.2,0.1,0.4,0.2,0.5
				c0.2,0.2,0.5,0.3,0.7,0.2c0.3-0.1,0.5-0.2,0.7-0.4c0.2-0.2,0.3-0.3,0.5-0.5c0.2-0.3,0.2-0.5,0.1-0.6c0,0-0.1-0.1-0.1-0.1
				c0,0-0.1,0-0.1,0C32,5.2,32,5.2,32,5.3c0,0.3-0.2,0.6-0.4,0.8C31.7,5.9,31.7,5.6,31.5,5.4z M30.9,6.4c-0.2,0.1-0.4,0-0.5-0.1
				c-0.1-0.1-0.1-0.2-0.1-0.3c0-0.1,0.1-0.3,0.2-0.3c0.1-0.1,0.3-0.2,0.5-0.3c0.2-0.1,0.4,0,0.5,0.1c0.1,0.1,0.1,0.2,0.1,0.4
				c0,0.1-0.1,0.2-0.2,0.3C31.2,6.3,31,6.4,30.9,6.4z"/>
			<path class="st0" d="M19.2,4.1C19.2,4,19,3.8,18.9,3.8c-0.1,0-0.3,0-0.4,0.1c-0.1,0.1-0.2,0.2-0.3,0.3c-0.1,0.1-0.1,0.3,0,0.4
				c0.1,0.2,0.2,0.3,0.4,0.3c0.2,0,0.4,0,0.5-0.1c0.1-0.1,0.3-0.2,0.4-0.3c0.2-0.1,0.3-0.3,0.2-0.3c0,0,0-0.1-0.1-0.1
				c0,0-0.1,0-0.1,0c0,0-0.1,0.1-0.1,0.1c-0.1,0.2-0.2,0.4-0.4,0.5C19.3,4.5,19.3,4.3,19.2,4.1z M18.6,4.7c-0.1,0-0.3-0.1-0.3-0.2
				c0-0.1,0-0.2,0-0.3c0.1-0.1,0.1-0.1,0.2-0.2C18.6,4,18.7,4,18.9,4c0.1,0,0.2,0,0.3,0.2c0,0.1,0,0.2,0,0.3c0,0.1-0.1,0.1-0.2,0.2
				C18.9,4.6,18.7,4.7,18.6,4.7L18.6,4.7z"/>
			<path class="st0" d="M23.4,8.1c-0.1,0-0.3,0-0.4,0.1c-0.1,0.1-0.2,0.2-0.2,0.3c0,0.1,0,0.2,0,0.4C22.9,8.9,23,9,23.2,9
				c0.2,0,0.3,0,0.4-0.1c0.1-0.1,0.2-0.3,0.2-0.4c0-0.2,0.1-0.3,0.1-0.5c0-0.2,0-0.3-0.1-0.4h-0.1c0,0,0,0,0,0.1c0,0,0,0.1,0,0.1
				c0.1,0.2,0.1,0.4,0.1,0.6C23.7,8.2,23.6,8.1,23.4,8.1z M23.4,8.8C23.4,8.9,23.2,9,23.1,9C23,8.9,23,8.9,23,8.8c0-0.1,0-0.2,0-0.3
				c0-0.1,0.1-0.2,0.2-0.3c0.1-0.1,0.2-0.1,0.3-0.1c0.1,0,0.1,0.1,0.2,0.2c0,0.1,0,0.2,0,0.2C23.6,8.6,23.5,8.7,23.4,8.8L23.4,8.8z"
				/>
			<path class="st0" d="M11.7,20c0.2,0,0.4-0.2,0.5-0.3c0.1-0.2,0.1-0.4,0.1-0.6c0-0.2-0.1-0.3-0.3-0.4c-0.1-0.1-0.3-0.1-0.5-0.1
				c-0.2,0-0.4,0.2-0.5,0.4c-0.1,0.2-0.1,0.5,0,0.7c0,0.2,0.1,0.4,0.2,0.6c0.1,0.3,0.2,0.4,0.4,0.4c0,0,0.1,0,0.1-0.1
				c0,0,0-0.1,0-0.1c0,0,0-0.1-0.1-0.1c-0.2-0.2-0.4-0.4-0.4-0.7C11.2,19.9,11.5,20.1,11.7,20z M11.2,19c0-0.2,0.1-0.3,0.3-0.3
				c0.1,0,0.2,0,0.3,0.1c0.1,0.1,0.1,0.2,0.1,0.3c0,0.2,0,0.3,0,0.5c0,0.2-0.1,0.3-0.3,0.3c-0.1,0-0.2,0-0.3-0.1
				c-0.1-0.1-0.1-0.2-0.2-0.3C11.2,19.3,11.2,19.2,11.2,19z"/>
			<path class="st0" d="M12,11c-0.1,0.1-0.1,0.3,0,0.4c0.1,0.1,0.2,0.2,0.3,0.3c0.1,0.1,0.3,0.1,0.4,0c0.1-0.1,0.2-0.2,0.3-0.3
				c0.1-0.2,0-0.3-0.1-0.5c-0.1-0.1-0.3-0.2-0.4-0.3c-0.1-0.1-0.3-0.1-0.4-0.1c-0.2,0-0.3,0-0.4,0.1c0,0,0,0.1,0,0.1
				c0,0,0,0.1,0.1,0.1h0.1c0.2-0.1,0.4-0.1,0.6,0C12.2,10.7,12,10.8,12,11z M12.8,11.1c0.1,0.1,0.1,0.2,0.1,0.3
				c0,0.1-0.1,0.1-0.2,0.1c-0.1,0-0.2,0-0.3,0c-0.1,0-0.2-0.1-0.3-0.2C12,11.3,12,11.2,12,11.1c0-0.1,0.1-0.1,0.2-0.1
				c0.1,0,0.2,0,0.3,0C12.6,10.9,12.7,11,12.8,11.1L12.8,11.1z"/>
			<path class="st0" d="M49.4,20.5c0.2-0.1,0.3-0.3,0.3-0.5c0-0.2,0-0.4-0.1-0.5c-0.1-0.1-0.1-0.1-0.2-0.2c-0.1,0-0.2,0-0.3,0
				l0.4-0.3c0,0,0-0.1,0-0.1c0,0-0.1-0.1-0.1-0.1l-0.6,0.4c-0.2,0.1-0.3,0.3-0.4,0.5c-0.1,0.2,0,0.4,0.1,0.6
				c0.1,0.2,0.3,0.3,0.4,0.3C49.1,20.7,49.3,20.7,49.4,20.5z M48.9,19.4c0.1,0,0.1,0,0.2,0c0.1,0,0.1,0.1,0.2,0.2
				c0.1,0.1,0.1,0.3,0.1,0.5c0,0.2-0.1,0.3-0.2,0.4c-0.1,0.1-0.2,0.1-0.3,0c-0.1-0.1-0.2-0.1-0.3-0.2C48.5,20,48.6,19.7,48.9,19.4
				L48.9,19.4z"/>
			<path class="st0" d="M45,17.5c0,0.1,0,0.3,0.1,0.4c0.1,0.1,0.2,0.2,0.3,0.2c0.1,0,0.1,0,0.2,0c0.1,0,0.1-0.1,0.2-0.1l-0.1,0.3
				c0,0,0,0,0.1,0h0.1l0.1-0.5c0-0.1,0-0.3,0-0.4c-0.1-0.1-0.2-0.2-0.3-0.3c-0.1-0.1-0.3-0.1-0.4,0C45.1,17.2,45,17.3,45,17.5z
				 M45.8,17.8c0,0,0,0.1-0.1,0.1c-0.1,0-0.1,0-0.2,0c-0.1,0-0.2-0.1-0.3-0.2c-0.1-0.1-0.1-0.2-0.1-0.3c0-0.1,0.1-0.1,0.2-0.1
				c0.1,0,0.2,0,0.2,0C45.8,17.3,45.8,17.5,45.8,17.8z"/>
			<path class="st0" d="M39.6,10c0,0.1,0,0.3,0.1,0.4c0.1,0.1,0.2,0.2,0.3,0.2c0.1,0,0.1,0,0.2,0c0.1,0,0.1-0.1,0.2-0.1l-0.1,0.3
				c0,0,0,0,0.1,0.1h0.1l0.1-0.4c0-0.1,0-0.3,0-0.4c-0.1-0.1-0.2-0.2-0.3-0.3c-0.1-0.1-0.3-0.1-0.4,0C39.8,9.7,39.7,9.9,39.6,10z
				 M40.4,10.3c0,0,0,0.1-0.1,0.1c-0.1,0-0.1,0-0.2,0c-0.1,0-0.2-0.1-0.3-0.2c-0.1-0.1-0.1-0.2-0.1-0.3c0-0.1,0.1-0.1,0.2-0.1
				c0.1,0,0.2,0,0.2,0C40.4,9.8,40.5,10,40.4,10.3L40.4,10.3z"/>
			<path class="st0" d="M51.3,22.8c0,0.1,0,0.3,0.1,0.4c0.1,0.1,0.2,0.2,0.3,0.2c0.1,0,0.1,0,0.2,0c0.1,0,0.1-0.1,0.2-0.1l-0.1,0.3
				c0,0,0,0,0.1,0h0.1l0.1-0.5c0-0.1,0-0.3,0-0.4c-0.1-0.1-0.2-0.2-0.3-0.3c-0.1-0.1-0.3-0.1-0.4,0C51.4,22.5,51.3,22.6,51.3,22.8z
				 M52,23.1c0,0,0,0.1-0.1,0.1c-0.1,0-0.1,0-0.2,0c-0.1,0-0.2-0.1-0.3-0.2c-0.1-0.1-0.1-0.2-0.1-0.3c0-0.1,0.1-0.1,0.2-0.1
				c0.1,0,0.2,0,0.2,0C52,22.6,52.1,22.8,52,23.1z"/>
			<path class="st0" d="M45.2,21.8c0,0.1,0,0.2,0.1,0.3c0.1,0.1,0.2,0.2,0.3,0.2c0.1,0,0.1,0,0.2,0c0.1,0,0.1-0.1,0.1-0.1l-0.1,0.3
				c0,0,0,0,0.1,0h0.1l0.1-0.4c0-0.1,0-0.2,0-0.4c0-0.1-0.2-0.2-0.3-0.2c-0.1,0-0.2,0-0.3,0C45.2,21.5,45.2,21.6,45.2,21.8z
				 M45.8,22c0,0,0,0.1-0.1,0.1h-0.1c-0.1,0-0.2-0.1-0.3-0.1c-0.1-0.1-0.1-0.2-0.1-0.3c0-0.1,0.1-0.1,0.1-0.1c0.1,0,0.1,0,0.2,0
				C45.8,21.6,45.9,21.8,45.8,22L45.8,22z"/>
			<path class="st0" d="M47.1,9.5c0,0.1,0,0.2,0.1,0.3c0.1,0.1,0.2,0.2,0.3,0.2c0.1,0,0.1,0,0.2,0c0.1,0,0.1-0.1,0.1-0.1l-0.1,0.3
				c0,0,0,0,0.1,0h0.1L48,9.8c0-0.1,0-0.2,0-0.4c0-0.1-0.2-0.2-0.3-0.2c-0.1,0-0.2,0-0.3,0C47.2,9.2,47.2,9.4,47.1,9.5z M47.8,9.8
				c0,0,0,0.1-0.1,0.1h-0.1c-0.1,0-0.2-0.1-0.3-0.1c-0.1-0.1-0.1-0.2-0.1-0.3c0-0.1,0.1-0.1,0.1-0.1c0.1,0,0.1,0,0.2,0
				C47.8,9.4,47.9,9.5,47.8,9.8z"/>
			<path class="st0" d="M16.3,20.7c0.1-0.1,0.2-0.2,0.2-0.3c0-0.1,0-0.2-0.1-0.3c0-0.1-0.1-0.1-0.2-0.1c-0.1,0-0.1,0-0.2,0l0.3-0.2
				c0,0,0-0.1,0-0.1c0,0,0,0-0.1,0l-0.4,0.3c-0.1,0.1-0.2,0.2-0.2,0.3c0,0.1,0,0.3,0.1,0.4c0.1,0.1,0.2,0.2,0.3,0.2
				C16.1,20.8,16.2,20.8,16.3,20.7z M15.9,20c0,0,0.1,0,0.1,0c0,0,0.1,0.1,0.1,0.1c0.1,0.1,0.1,0.2,0.1,0.3c0,0.1,0,0.2-0.1,0.3
				c-0.1,0-0.1,0-0.2,0c-0.1,0-0.1-0.1-0.2-0.1C15.6,20.4,15.6,20.2,15.9,20z"/>
			<path class="st0" d="M31.6,0.2c-0.1,0-0.2,0.1-0.3,0.2c-0.1,0.1-0.1,0.2-0.1,0.3c0,0.1,0,0.1,0.1,0.2c0,0.1,0.1,0.1,0.2,0.1h-0.3
				c0,0,0,0.1,0,0.1c0,0,0,0,0,0.1h0.4c0.1,0,0.3-0.1,0.4-0.2c0.1-0.1,0.2-0.2,0.1-0.4c0-0.1-0.1-0.2-0.2-0.3
				C31.9,0.2,31.7,0.2,31.6,0.2z M31.5,1c0,0-0.1,0-0.1-0.1c0,0,0-0.1,0-0.1c0-0.1,0-0.2,0-0.3c0-0.1,0.1-0.2,0.2-0.2
				c0.1,0,0.1,0,0.2,0.1c0,0.1,0.1,0.1,0.1,0.2C32,0.8,31.8,0.9,31.5,1z"/>
			<path class="st0" d="M16.6,9.4c0.1-0.2,0-0.3,0-0.5c-0.1-0.2-0.2-0.3-0.4-0.3c-0.1,0-0.2,0-0.3,0c-0.1,0-0.2,0.1-0.2,0.2l0.1-0.4
				c0,0-0.1-0.1-0.1-0.1c0,0-0.1,0-0.1,0l-0.2,0.6c-0.1,0.2-0.1,0.4,0,0.6c0.1,0.2,0.2,0.3,0.4,0.4c0.2,0.1,0.3,0.1,0.5,0
				C16.5,9.7,16.6,9.6,16.6,9.4z M15.6,8.9c0-0.1,0.1-0.1,0.2-0.1c0.1,0,0.1,0,0.2,0c0.1,0.1,0.3,0.1,0.4,0.3
				c0.1,0.1,0.1,0.3,0.1,0.4c0,0.1-0.1,0.2-0.2,0.2c-0.1,0-0.2,0-0.3,0C15.6,9.5,15.5,9.3,15.6,8.9L15.6,8.9z"/>
			<path class="st0" d="M32.5,5c-0.1,0.1-0.1,0.3,0,0.5c0.1,0.1,0.2,0.3,0.3,0.3c0.1,0,0.2,0,0.3,0c0.1,0,0.2-0.1,0.2-0.2L33.2,6
				c0,0,0,0.1,0.1,0.1c0,0,0.1,0,0.1,0l0.2-0.5c0.1-0.2,0.1-0.4,0-0.5c0-0.2-0.2-0.3-0.3-0.4c-0.1-0.1-0.3-0.1-0.5,0
				C32.6,4.7,32.5,4.9,32.5,5z M33.4,5.5c0,0.1-0.1,0.1-0.2,0.1c-0.1,0-0.1,0-0.2,0c-0.1-0.1-0.2-0.1-0.3-0.3
				c-0.1-0.1-0.1-0.2-0.1-0.4c0-0.1,0.1-0.2,0.2-0.2c0.1,0,0.2,0,0.3,0C33.5,4.9,33.6,5.2,33.4,5.5L33.4,5.5z"/>
			<path class="st0" d="M22.8,5.8c0,0.1,0.1,0.1,0.1,0.2c0.1,0,0.1,0,0.2,0c0,0,0.1,0,0.1,0c0,0,0-0.1,0-0.1v0.2l0,0l0,0l-0.1-0.2
				c0-0.1-0.1-0.1-0.1-0.2c-0.1,0-0.2,0-0.2,0c-0.1,0-0.1,0.1-0.2,0.1C22.7,5.8,22.7,5.8,22.8,5.8z M23.3,5.8
				C23.3,5.8,23.3,5.8,23.3,5.8L23.3,5.8C23.1,5.9,23,5.9,23,5.9c-0.1,0-0.1-0.1-0.1-0.1c0,0,0-0.1,0-0.1c0,0,0.1-0.1,0.1-0.1
				C23.1,5.6,23.2,5.6,23.3,5.8L23.3,5.8z"/>
			<path class="st0" d="M45.4,13.3c0.1,0,0.2,0.1,0.3,0.3c0.1,0.1,0.1,0.3,0,0.4c0,0.1-0.1,0.1-0.1,0.1c-0.1,0-0.1,0-0.2,0l0.3,0.1
				c0,0,0,0.1,0,0.1c0,0,0,0,0,0.1l-0.5-0.2c-0.1,0-0.3-0.1-0.4-0.3c-0.1-0.1-0.1-0.3-0.1-0.4c0-0.1,0.1-0.2,0.3-0.3
				C45.1,13.2,45.2,13.2,45.4,13.3z M45.3,14.1c0,0,0.1,0,0.1-0.1c0,0,0.1-0.1,0.1-0.1c0-0.1,0-0.2,0-0.3c0-0.1-0.1-0.2-0.2-0.3
				c-0.1,0-0.2,0-0.2,0c-0.1,0-0.1,0.1-0.1,0.2C44.8,13.8,44.9,14,45.3,14.1z"/>
			<path class="st0" d="M40.8,12.2c0.1,0.1,0.2,0.2,0.2,0.4c0,0.1,0,0.3-0.1,0.4c0,0.1-0.1,0.1-0.2,0.1c-0.1,0-0.1,0-0.2,0l0.3,0.2
				c0,0,0,0.1,0,0.1c0,0,0,0-0.1,0L40.2,13c-0.1-0.1-0.2-0.2-0.3-0.4c0-0.1,0-0.3,0.1-0.4c0.1-0.1,0.2-0.2,0.3-0.2
				C40.5,12.1,40.7,12.1,40.8,12.2z M40.4,12.9c0,0,0.1,0,0.2,0c0,0,0.1-0.1,0.1-0.1c0.1-0.1,0.1-0.2,0.1-0.3c0-0.1,0-0.2-0.1-0.3
				c-0.1,0-0.2,0-0.2,0c-0.1,0-0.1,0.1-0.2,0.1C40.1,12.5,40.1,12.7,40.4,12.9z"/>
			<path class="st0" d="M42.9,8.5c0,0.1,0.1,0.2,0.1,0.3c0.1,0.1,0.2,0.1,0.3,0.1c0.1,0,0.1,0,0.2-0.1c0,0,0-0.1,0-0.2V9
				c0,0,0,0,0.1,0h0.1V8.6c0-0.1,0-0.2-0.1-0.3c-0.1-0.1-0.2-0.2-0.3-0.1c-0.1,0-0.2,0-0.3,0.1C42.9,8.3,42.8,8.4,42.9,8.5z
				 M43.6,8.6C43.6,8.6,43.6,8.7,43.6,8.6l-0.2,0.1c-0.1,0-0.2,0-0.3-0.1c-0.1,0-0.1-0.1-0.2-0.2c0-0.1,0-0.1,0.1-0.2
				c0.1,0,0.1-0.1,0.2-0.1C43.4,8.2,43.5,8.4,43.6,8.6L43.6,8.6z"/>
			<path class="st0" d="M15.6,11.8c-0.8,0-1.5,0.5-1.7,1.2c-0.3,0.8-0.4,1.7-0.4,2.6c0,0.3,0,0.6,0,1.1c0,0.2,0,0.4,0,0.5v0.4
				c-0.3,0-0.6,0-0.9-0.1c-0.3-0.1-0.5-0.2-0.7-0.4c-0.2-0.2-0.4-0.4-0.5-0.6c-0.1-0.3-0.2-0.6-0.2-0.9c-0.1-1.1,0.5-2.2,1.5-2.6
				c0.1-0.2,0.2-0.5,0.2-0.8c0-0.3-0.1-0.4-0.3-0.4C12,11.9,11.4,12.3,11,13c-0.4,0.6-0.7,1.4-0.7,2.1c0,1.7,1.1,2.7,3.2,3
				c0,0.2,0,0.5-0.1,1.1c0,0.2-0.1,0.4-0.1,0.6c0,0.2,0,0.3,0,0.5c0,0.3,0.2,0.6,0.5,0.7c0.1,0,0.1,0,0.2,0c0.4,0,0.6-0.2,0.6-0.7
				c0-0.4,0-0.7-0.1-1.1c-0.1-0.5-0.1-0.8-0.1-1c1,0,1.9-0.4,2.6-0.9c0.7-0.6,1.1-1.5,1.1-2.5c0-0.7-0.2-1.4-0.6-1.9
				C17.1,12.2,16.4,11.8,15.6,11.8z M16.1,16.5c-0.4,0.6-1.1,1-1.8,1.1c0-0.1,0-0.3,0-0.4s0-0.4,0-0.6v-0.2c0-0.1,0-0.2,0-0.3v-0.6
				c0-2.1,0.4-3.1,1.3-3.1c0.5,0,0.9,0.3,1,0.8c0.2,0.4,0.3,0.8,0.3,1.3C16.8,15.2,16.6,15.9,16.1,16.5z"/>
			<path class="st0" d="M17.9,10.3c0.1,0.8,0.1,1.4,0.2,1.8c0.1,0.4,0.2,0.8,0.3,1.2c0.1,0.4,0.6,0.7,1,0.6c0.5-0.1,0.7-0.3,0.6-0.6
				c-0.1-0.3-0.2-0.5-0.4-0.7c-0.2-0.2-0.3-0.4-0.4-0.5c-0.1-0.1-0.2-0.3-0.3-0.4c-0.3-0.4-0.5-0.9-0.5-1.4c0-0.1,0-0.2,0-0.4
				s0-0.3,0-0.4c0.2,0.4,0.5,0.8,0.9,1c0.4,0.3,0.9,0.4,1.3,0.3c0.7-0.1,1.3-0.7,1.7-1.8c0.1,0.3,0.2,0.6,0.5,0.9
				c0.2,0.3,0.6,0.4,0.9,0.4c0.3-0.1,0.6-0.3,0.6-0.6c0.1-0.3,0.1-0.6,0.1-0.9c0-0.1,0-0.2-0.1-0.3c-0.1,0.4-0.5,0.7-0.9,0.8
				C23,9.3,22.7,9,22.5,8.5c0.2-1.2,0.2-2.4,0-3.6c0-0.2-0.1-0.4-0.2-0.6c-0.1-0.1-0.3-0.2-0.6-0.1c-0.3,0-0.4,0.4-0.3,1.2
				c0.5,3,0,4.6-1.3,4.8c-0.5,0.1-0.9-0.1-1.2-0.5c-0.2-0.4-0.3-0.9-0.4-1.4c0-0.5,0-1,0-1.5c0-0.5,0-1,0-1.5
				c-0.1-0.4-0.3-0.5-0.6-0.5c-0.3,0-0.5,0.2-0.6,0.4c-0.1,0.3-0.1,0.6,0,0.9c0,0.3,0.1,0.7,0.3,1.2s0.2,0.9,0.3,1.2
				c0,0.2,0,0.4,0.1,0.8C17.9,9.5,17.9,9.9,17.9,10.3z"/>
		</g>
	</g>
</g>
</svg>
